<svg width="34" height="34" viewBox="0 0 34 34" fill="none" xmlns="http://www.w3.org/2000/svg">
<path d="M33.9585 25.7545C33.8103 25.2562 33.101 24.9049 33.101 24.9049C33.034 24.869 32.974 24.8368 32.9246 24.8117C31.7424 24.2309 30.6943 23.5318 29.8121 22.7396C29.1028 22.1014 28.4958 21.3988 28.0088 20.6531C27.4125 19.7425 27.1337 18.9825 27.0137 18.5702C26.9467 18.3013 26.9572 18.1938 27.0137 18.054C27.0596 17.9357 27.1972 17.8245 27.2607 17.7708C27.6595 17.484 28.3017 17.0609 28.697 16.8028C29.0393 16.577 29.3322 16.3834 29.5051 16.2615C30.0591 15.8671 30.4402 15.4656 30.6626 15.0318C30.9519 14.4726 30.9872 13.856 30.7614 13.2501C30.4579 12.4327 29.7062 11.9452 28.7499 11.9452C28.5382 11.9452 28.3194 11.9703 28.1006 12.0169C27.5536 12.1388 27.0349 12.3359 26.6008 12.508C26.5691 12.5224 26.5338 12.4973 26.5373 12.4614C26.5832 11.368 26.6361 9.89814 26.5161 8.50358C26.4103 7.24167 26.1527 6.17693 25.7363 5.24842C25.3163 4.31632 24.7693 3.62801 24.3423 3.12969C23.9365 2.65647 23.2202 1.9574 22.1403 1.33003C20.6229 0.448123 18.8938 0 17.0023 0C15.1143 0 13.3887 0.448123 11.8678 1.33003C10.7244 1.99325 9.99395 2.74251 9.66224 3.12969C9.23524 3.62801 8.68827 4.31632 8.26833 5.24842C7.8484 6.17693 7.59432 7.23808 7.48845 8.50358C7.36847 9.90531 7.41787 11.2569 7.46728 12.4614C7.46728 12.4973 7.43552 12.5224 7.40023 12.508C6.96618 12.3359 6.44743 12.1388 5.90046 12.0169C5.6852 11.9703 5.46641 11.9452 5.25114 11.9452C4.29835 11.9452 3.5467 12.4327 3.23969 13.2501C3.01384 13.856 3.04913 14.4726 3.3385 15.0318C3.56434 15.4656 3.94193 15.8671 4.49597 16.2615C4.66535 16.3834 4.96178 16.577 5.30408 16.8028C5.68872 17.0574 6.31334 17.4696 6.71563 17.7528C6.76503 17.7887 6.93442 17.9178 6.98735 18.054C7.04381 18.1974 7.0544 18.3049 6.98029 18.5917C6.85678 19.0076 6.578 19.7604 5.99221 20.6531C5.50522 21.4024 4.89826 22.1014 4.18895 22.7396C3.30674 23.5318 2.25866 24.2309 1.07649 24.8117C1.02003 24.8404 0.952977 24.8726 0.882399 24.9156C0.882399 24.9156 0.176625 25.2813 0.0425277 25.7545C-0.155089 26.4536 0.370713 27.1097 0.903573 27.461C1.77873 28.0346 2.84445 28.3429 3.46201 28.5114C3.63492 28.558 3.79019 28.601 3.93135 28.644C4.01957 28.6727 4.24189 28.7588 4.33717 28.8842C4.45715 29.042 4.47126 29.2356 4.51361 29.4542C4.58066 29.8235 4.7324 30.2788 5.18057 30.5943C5.67461 30.9384 6.29922 30.9635 7.09322 30.9958C7.9225 31.028 8.95293 31.0675 10.1351 31.4654C10.6821 31.6482 11.1797 31.9601 11.7513 32.3186C12.9511 33.0679 14.4439 34 16.9917 34C19.5431 34 21.0464 33.0643 22.2533 32.3115C22.8249 31.9566 23.3154 31.6482 23.8518 31.469C25.034 31.0711 26.0644 31.0316 26.8937 30.9994C27.6877 30.9671 28.3123 30.9456 28.8064 30.5978C29.2863 30.2609 29.4239 29.759 29.4874 29.3825C29.5227 29.1961 29.5439 29.0276 29.6498 28.8914C29.7415 28.7731 29.9462 28.6906 30.0415 28.6584C30.1862 28.6118 30.3485 28.5687 30.5285 28.5186C31.146 28.3501 31.9224 28.1529 32.8646 27.6116C34.0009 26.9555 34.0785 26.1525 33.9585 25.7545Z" fill="#A0A3BD"/>
</svg>
