<svg width="29" height="29" viewBox="0 0 29 29" fill="none" xmlns="http://www.w3.org/2000/svg">
<g clip-path="url(#clip0_6358_47265)">
<path d="M0.5271 28.5392L2.48684 21.3798C1.27754 19.2841 0.642105 16.9085 0.643267 14.4725C0.646752 6.85653 6.84429 0.658997 14.4591 0.658997C18.1543 0.660158 21.6231 2.09947 24.2322 4.71092C26.8402 7.32236 28.276 10.7934 28.2749 14.4852C28.2714 22.1023 22.0738 28.2999 14.4591 28.2999C12.1473 28.2987 9.86928 27.719 7.85146 26.6178L0.5271 28.5392ZM8.19067 24.1167C10.1376 25.2726 11.9963 25.9649 14.4544 25.9661C20.7832 25.9661 25.9387 20.8152 25.9422 14.4829C25.9445 8.13786 20.8134 2.99396 14.4637 2.99164C8.13026 2.99164 2.97823 8.1425 2.97591 14.4736C2.97475 17.0584 3.73216 18.9937 5.00419 21.0185L3.84368 25.2563L8.19067 24.1167ZM21.4187 17.7693C21.3327 17.6253 21.1027 17.5393 20.7565 17.3662C20.4115 17.1931 18.7143 16.3579 18.3971 16.2429C18.0812 16.1279 17.8511 16.0698 17.62 16.4159C17.39 16.761 16.7278 17.5393 16.5268 17.7693C16.3259 17.9993 16.1237 18.0284 15.7787 17.8553C15.4337 17.6822 14.3208 17.3186 13.0023 16.1418C11.9766 15.2264 11.283 14.0961 11.0821 13.7499C10.8811 13.4049 11.0612 13.2179 11.2331 13.0459C11.3888 12.8914 11.5781 12.6428 11.7512 12.4407C11.9266 12.2409 11.9835 12.0968 12.0997 11.8657C12.2147 11.6357 12.1578 11.4335 12.0707 11.2604C11.9835 11.0885 11.2935 9.38898 11.0066 8.69778C10.7254 8.02517 10.4408 8.11578 10.2294 8.10533L9.56725 8.09371C9.33724 8.09371 8.96318 8.17968 8.6472 8.52586C8.33123 8.87203 7.43906 9.70612 7.43906 11.4056C7.43906 13.1052 8.67624 14.7466 8.84817 14.9766C9.02126 15.2066 11.2819 18.694 14.7448 20.1891C15.5685 20.5445 16.212 20.7571 16.7127 20.9163C17.5398 21.1788 18.2926 21.1416 18.8874 21.0534C19.5507 20.9546 20.9296 20.2181 21.2177 19.4119C21.5058 18.6045 21.5058 17.9133 21.4187 17.7693Z" fill="#FCFCFC"/>
</g>
<defs>
<clipPath id="clip0_6358_47265">
<rect width="27.8802" height="27.8802" fill="white" transform="translate(0.460876 0.658997)"/>
</clipPath>
</defs>
</svg>
