<svg width="30" height="34" viewBox="0 0 30 34" fill="none" xmlns="http://www.w3.org/2000/svg">
<path d="M29.995 13.7558C29.7085 13.7828 29.4209 13.7969 29.1331 13.7982C27.5791 13.7984 26.0495 13.4233 24.6824 12.7067C23.3153 11.9902 22.1537 10.9547 21.3024 9.69386V23.6701C21.3024 25.7132 20.6777 27.7104 19.5074 29.4091C18.337 31.1078 16.6735 32.4318 14.7272 33.2137C12.781 33.9955 10.6394 34.2001 8.57326 33.8015C6.50713 33.4029 4.60927 32.4191 3.11967 30.9744C1.63007 29.5298 0.615644 27.6892 0.204665 25.6854C-0.206314 23.6816 0.00461411 21.6046 0.810779 19.7171C1.61694 17.8295 2.98213 16.2162 4.73372 15.0812C6.4853 13.9461 8.5446 13.3403 10.6512 13.3403C10.8736 13.3403 11.0909 13.3596 11.3095 13.373V18.4634C11.0909 18.438 10.8761 18.3992 10.6512 18.3992C9.20945 18.3992 7.82675 18.9547 6.80727 19.9434C5.78779 20.9321 5.21506 22.2731 5.21506 23.6713C5.21506 25.0696 5.78779 26.4106 6.80727 27.3993C7.82675 28.388 9.20945 28.9435 10.6512 28.9435C13.6541 28.9435 16.306 26.649 16.306 23.7368L16.3584 0H21.3799C21.6093 2.11599 22.5983 4.08644 24.1741 5.56682C25.7498 7.04719 27.812 7.94328 30 8.09841V13.7558" fill="#A0A3BD"/>
</svg>
