<svg width="48" height="32" viewBox="0 0 48 32" fill="none" xmlns="http://www.w3.org/2000/svg">
<path d="M20.6452 21.5054C20.6452 19.0968 19.8996 17.0323 18.4086 15.3118C16.9176 13.4767 15.0251 12.2724 12.7312 11.6989C12.9606 10.2079 13.5341 8.6595 14.4516 7.05376C15.4839 5.33333 16.5735 3.95699 17.7204 2.92473L14.2796 0C4.75986 6.30824 0 13.4767 0 21.5054C0 24.4875 0.974911 27.0108 2.92473 29.0753C4.98925 31.0251 7.4552 32 10.3226 32C13.19 32 15.5986 30.9677 17.5484 28.9032C19.6129 26.8387 20.6452 24.3728 20.6452 21.5054ZM48 21.5054C48 19.0968 47.2545 17.0323 45.7634 15.3118C44.2724 13.4767 42.3799 12.2724 40.086 11.6989C40.4301 10.0932 41.0609 8.48746 41.9785 6.88172C43.0108 5.27599 44.1004 3.95699 45.2473 2.92473L41.6344 0C32 6.53763 27.1828 13.7061 27.1828 21.5054C27.1828 24.3728 28.2151 26.8387 30.2796 28.9032C32.3441 30.9677 34.81 32 37.6774 32C40.4301 32 42.8387 30.9677 44.9032 28.9032C46.9678 26.8387 48 24.3728 48 21.5054Z" fill="#A400B1"/>
</svg>
