<svg width="24" height="24" viewBox="0 0 24 24" fill="none" xmlns="http://www.w3.org/2000/svg">
<path d="M0.767948 23.2966L2.22627 17.969L2.28135 17.7678L2.17708 17.5871C1.18013 15.8594 0.656048 13.9008 0.657007 11.8912C0.659881 5.61117 5.77114 0.500085 12.0498 0.5L0.767948 23.2966ZM0.767948 23.2966L6.23513 21.8624L6.42722 21.812L6.60154 21.9071C8.26466 22.8148 10.1433 23.293 12.0503 23.294C18.3289 23.2939 23.4401 18.1829 23.443 11.9018L0.767948 23.2966ZM1.66501 11.8918C1.66399 14.1535 2.30971 15.8694 3.37118 17.6042L2.42976 21.0419L2.201 21.8773L3.0388 21.6577L6.58016 20.7293C8.24835 21.6941 9.89518 22.284 12.0458 22.285H12.046C17.77 22.285 22.4319 17.6273 22.435 11.9003V11.9002C22.4371 6.16242 17.7967 1.5101 12.0542 1.508H12.054C6.32596 1.508 1.66711 6.16568 1.66501 11.8918ZM1.66501 11.8918L2.16501 11.892L1.66501 11.8918ZM10.019 9.647L9.57224 9.4225C9.55356 9.45967 9.53749 9.49216 9.52322 9.52099C9.45165 9.66562 9.4255 9.71846 9.34326 9.81213L9.34323 9.8121L9.33922 9.81678C9.27005 9.89756 9.20984 9.97121 9.15538 10.0378C9.0665 10.1465 8.99294 10.2365 8.92078 10.3081L8.91945 10.3094C8.91615 10.3127 8.91256 10.3163 8.9087 10.3201C8.84172 10.3866 8.69443 10.5328 8.61894 10.736C8.52145 10.9984 8.56453 11.2689 8.71059 11.52C8.89241 11.8332 9.52098 12.8603 10.4631 13.701C11.4814 14.6099 12.3934 15.0026 12.7969 15.1763C12.8687 15.2072 12.9245 15.2312 12.9618 15.2499C13.1436 15.3411 13.3681 15.4223 13.6146 15.3925C13.8815 15.3602 14.0719 15.212 14.2065 15.058C14.3717 14.869 14.9528 14.1879 15.1787 13.8537C15.1817 13.8546 15.1848 13.8556 15.188 13.8567C15.2111 13.8641 15.2373 13.8733 15.269 13.8848L15.2695 13.885C15.3754 13.9234 15.7784 14.1124 16.2291 14.33C16.6638 14.5399 17.101 14.7558 17.2468 14.8289L17.2474 14.8292C17.3093 14.8602 17.3681 14.8885 17.4189 14.913C17.4324 14.9195 17.4453 14.9258 17.4575 14.9317C17.5108 14.9575 17.5514 14.9775 17.5845 14.9951C17.5855 15.0427 17.5839 15.1044 17.5775 15.179C17.5595 15.3879 17.5065 15.6682 17.3972 15.9747C17.3311 16.1597 17.0925 16.4158 16.7163 16.6569C16.3521 16.8904 15.9802 17.0328 15.7886 17.0614C15.3178 17.1313 14.7539 17.1558 14.1415 16.9615C13.7176 16.8268 13.1814 16.6495 12.4942 16.353C9.86379 15.2173 8.06837 12.662 7.6832 12.1138C7.6535 12.0715 7.63219 12.0412 7.61952 12.0244L7.61717 12.0212C7.54272 11.9216 7.26472 11.5499 7.00384 11.036C6.73532 10.5071 6.50701 9.87 6.50701 9.251C6.50701 8.0828 7.06105 7.48978 7.35565 7.17446C7.37739 7.15119 7.39772 7.12944 7.4163 7.10908C7.57507 6.93513 7.75055 6.9009 7.83562 6.90002L8.39364 6.90981C8.42639 6.91113 8.45796 6.91091 8.47709 6.91078C8.4792 6.91077 8.48115 6.91075 8.48294 6.91074C8.49313 6.91068 8.50102 6.91067 8.50739 6.91072C8.52797 6.93597 8.56684 6.99365 8.6165 7.1124C8.69233 7.29505 8.80058 7.55885 8.9168 7.84207C8.98946 8.01912 9.06523 8.20377 9.13813 8.38092C9.31927 8.82106 9.49735 9.2514 9.54739 9.3508C9.56737 9.39049 9.57274 9.41083 9.57414 9.4183C9.57361 9.41957 9.57286 9.42126 9.57179 9.42339L10.019 9.647ZM10.019 9.647C10.118 9.449 10.069 9.275 9.99401 9.126L9.14301 11.269C8.97001 10.972 9.12501 10.811 9.27301 10.663C9.3622 10.5745 9.46423 10.4501 9.56644 10.3255C9.61779 10.2628 9.66918 10.2002 9.71901 10.142C9.84696 9.99626 9.90167 9.88498 9.97623 9.73333C9.98966 9.70601 10.0037 9.67738 10.019 9.647ZM20.1093 3.8414C17.9571 1.68725 15.0983 0.500999 12.05 0.5L20.1093 3.8414ZM20.1093 3.8414C22.2606 5.99557 23.4439 8.85637 23.443 11.9018L20.1093 3.8414ZM17.5768 14.9031C17.5768 14.9029 17.5773 14.9048 17.578 14.9089C17.5771 14.9053 17.5767 14.9033 17.5768 14.9031ZM8.49114 6.89357C8.49115 6.89352 8.49187 6.89403 8.49324 6.89527C8.49181 6.89425 8.49112 6.89363 8.49114 6.89357ZM18.041 14.729C17.9815 14.6293 17.8418 14.5619 17.6345 14.4619C17.5839 14.4375 17.5294 14.4112 17.471 14.382L18.041 14.729Z" fill="#14142B" stroke="#A400B1"/>
</svg>
