<svg width="273" height="233" viewBox="0 0 273 233" fill="none" xmlns="http://www.w3.org/2000/svg">
<g clip-path="url(#clip0_6520_48429)">
<path d="M88.5332 59.9552C88.5332 59.9552 116.789 59.7267 130.279 59.879C140.871 59.9987 150.82 62.6204 159.695 68.6362C168.834 74.8334 174.41 83.431 176.094 94.3603C178.674 111.11 170.731 126.535 155.731 134.527C148.323 138.476 140.401 140.525 132.082 140.797C124.454 141.047 116.814 140.913 109.178 140.928C102.876 140.942 88.5368 140.779 88.5368 140.779V138.545C88.5368 138.545 94.0478 133.313 96.4834 131.17V69.5972C94.7235 68.0307 88.5368 62.1889 88.5368 62.1889V59.9552H88.5332ZM120.374 138.447C122.517 138.447 124.428 138.498 126.34 138.437C131.002 138.291 135.197 136.834 138.851 133.878C143.831 129.853 146.787 124.519 148.604 118.493C151.763 108.02 151.998 97.4063 149.797 86.7417C148.709 81.4656 146.906 76.4325 143.704 72.0158C139.819 66.6563 134.796 63.1136 128.082 62.4427C126.026 62.236 123.937 62.3085 121.863 62.294C121.378 62.294 120.898 62.4572 120.374 62.5551V138.444V138.447Z" fill="#14142B"/>
<path d="M227.633 58.0658C239.761 58.1855 249.792 61.159 258.364 68.3642C265.939 74.7354 270.597 82.8471 272.284 92.5871C273.712 100.815 273.065 108.927 269.834 116.679C265.245 127.699 257.244 135.361 246.157 139.517C234.235 143.988 222.097 144.039 210.33 139.111C195.778 133.015 187.101 121.945 185.002 106.153C183.162 92.3296 187 80.1819 196.967 70.3006C203.844 63.4834 212.3 59.7484 221.869 58.5626C224.142 58.2798 226.44 58.1601 227.637 58.0586L227.633 58.0658ZM210.793 100.242C210.793 101.801 210.76 103.364 210.8 104.923C210.974 111.849 211.588 118.721 213.586 125.397C214.551 128.62 215.888 131.663 217.822 134.437C223.062 141.957 234.318 141.976 239.475 134.538C240.444 133.142 241.315 131.655 242.059 130.125C244.029 126.075 244.939 121.713 245.597 117.289C246.75 109.532 246.811 101.729 246.536 93.9179C246.334 88.1123 245.713 82.354 244.249 76.7116C243.234 72.7954 241.683 69.1293 239.251 65.8585C234.069 58.8962 223.282 58.9035 218.125 65.931C217.424 66.8847 216.687 67.8602 216.228 68.9371C215.126 71.5262 213.977 74.1226 213.207 76.8204C211.017 84.4644 210.876 92.3659 210.8 100.242H210.793Z" fill="#14142B"/>
<path d="M80.1241 112.248C80.9119 112.636 81.5587 112.952 82.3718 113.354C81.2732 116.988 79.9325 120.422 78.1004 123.653C72.4593 133.596 64.2417 140.094 52.8476 141.878C37.1856 144.333 23.0306 141.047 11.416 129.665C4.99079 123.37 1.4674 115.544 0.354365 106.595C-1.90061 88.4714 6.83742 72.7737 22.503 64.3973C36.0906 57.1304 50.2999 56.1477 64.8813 61.1011C66.4171 61.6232 67.8229 61.8154 69.4129 61.4347C72.2208 60.7602 80.6697 59.4947 80.6697 59.4947L80.7095 95.1617H78.4943C76.2104 91.4558 73.9048 87.7353 71.6245 84.004C68.0578 78.1731 64.4151 72.3857 60.9857 66.4751C59.0596 63.1535 56.1288 61.9532 52.6416 62.0294C41.5293 62.2759 34.0272 68.0089 29.4377 77.9011C27.667 81.7159 26.8467 85.8062 26.4564 89.9727C25.7879 97.1561 26.1348 104.274 28.6102 111.113C31.9638 120.378 38.2589 126.68 48.0521 128.541C59.9233 130.796 69.6334 126.786 76.9584 117.125C78.0751 115.653 78.9857 114.029 80.1313 112.252L80.1241 112.248Z" fill="#14142B"/>
<path d="M29.0943 189.91C29.7231 188.764 30.5867 187.872 31.6781 187.234C32.7694 186.596 33.9873 186.277 35.3352 186.277C36.9722 186.277 38.378 186.668 39.5488 187.448C40.7197 188.228 41.5689 189.326 42.1001 190.748H40.3764C39.9572 189.751 39.3139 188.971 38.4538 188.409C37.5938 187.847 36.553 187.564 35.3352 187.564C34.2583 187.564 33.2862 187.818 32.4261 188.322C31.5661 188.83 30.8903 189.555 30.3988 190.505C29.9074 191.455 29.6652 192.554 29.6652 193.805C29.6652 195.056 29.911 196.151 30.3988 197.094C30.8903 198.037 31.5661 198.758 32.4261 199.266C33.2862 199.773 34.2583 200.024 35.3352 200.024C36.553 200.024 37.5938 199.748 38.4538 199.19C39.3139 198.635 39.9572 197.866 40.3764 196.88H42.1001C41.5689 198.287 40.7124 199.375 39.538 200.147C38.3635 200.919 36.9614 201.307 35.3352 201.307C33.9909 201.307 32.773 200.988 31.6781 200.35C30.5867 199.712 29.7231 198.823 29.0943 197.685C28.4655 196.546 28.1475 195.255 28.1475 193.805C28.1475 192.354 28.4619 191.06 29.0943 189.918V189.91Z" fill="#14142B"/>
<path d="M47.6546 200.618C46.7946 200.132 46.1152 199.443 45.6165 198.551C45.1178 197.659 44.8721 196.615 44.8721 195.422C44.8721 194.229 45.125 193.184 45.6273 192.292C46.1333 191.4 46.8163 190.711 47.6872 190.225C48.5545 189.74 49.5266 189.497 50.6071 189.497C51.6876 189.497 52.6633 189.74 53.5378 190.225C54.4123 190.711 55.099 191.4 55.5977 192.292C56.0963 193.184 56.3421 194.229 56.3421 195.422C56.3421 196.615 56.0891 197.641 55.5868 198.54C55.0845 199.44 54.3907 200.132 53.5089 200.618C52.6272 201.104 51.6478 201.343 50.5673 201.343C49.4868 201.343 48.5183 201.1 47.6583 200.618H47.6546ZM52.6633 199.545C53.3065 199.2 53.8305 198.682 54.228 197.985C54.6256 197.289 54.8279 196.437 54.8279 195.425C54.8279 194.414 54.6328 193.562 54.2389 192.865C53.845 192.169 53.3282 191.651 52.685 191.306C52.0417 190.962 51.3407 190.791 50.5854 190.791C49.8301 190.791 49.1291 190.962 48.4858 191.306C47.8426 191.651 47.3258 192.169 46.9427 192.865C46.5561 193.562 46.3645 194.414 46.3645 195.425C46.3645 196.437 46.5561 197.289 46.9427 197.985C47.3294 198.682 47.839 199.2 48.475 199.545C49.111 199.889 49.8084 200.06 50.5637 200.06C51.319 200.06 52.02 199.889 52.6633 199.545Z" fill="#14142B"/>
<path d="M68.2927 190.733C69.16 191.585 69.5937 192.818 69.5937 194.432V201.177H68.1445V194.599C68.1445 193.348 67.8338 192.394 67.2086 191.73C66.587 191.07 65.7342 190.74 64.6573 190.74C63.5804 190.74 62.6697 191.092 62.012 191.796C61.3543 192.499 61.0255 193.533 61.0255 194.892V201.173H59.5547V189.663H61.0255V191.625C61.3905 190.922 61.9145 190.385 62.6011 190.012C63.2877 189.638 64.0646 189.453 64.9319 189.453C66.3052 189.453 67.4254 189.877 68.2927 190.73V190.733Z" fill="#14142B"/>
<path d="M77.4494 199.744L81.3161 189.667H82.87L78.2697 201.176H76.611L72.0107 189.667H73.5863L77.453 199.744H77.4494Z" fill="#14142B"/>
<path d="M95.7284 195.991H86.2135C86.2568 196.861 86.4664 197.608 86.8423 198.225C87.2217 198.845 87.7168 199.309 88.3347 199.628C88.9491 199.944 89.6212 200.103 90.3512 200.103C91.3016 200.103 92.1039 199.871 92.758 199.407C93.4084 198.943 93.8385 198.319 94.0517 197.532H95.6056C95.3237 198.656 94.7274 199.574 93.8096 200.285C92.8917 200.995 91.7389 201.351 90.3548 201.351C89.2779 201.351 88.3094 201.108 87.4566 200.625C86.6038 200.14 85.9352 199.451 85.451 198.558C84.9667 197.666 84.7246 196.622 84.7246 195.429C84.7246 194.236 84.9631 193.188 85.4401 192.289C85.9171 191.39 86.5821 190.701 87.4349 190.222C88.2878 189.743 89.2635 189.504 90.3548 189.504C91.4462 189.504 92.4038 189.743 93.2205 190.222C94.0408 190.701 94.6696 191.342 95.1105 192.151C95.5514 192.96 95.7718 193.855 95.7718 194.838C95.7718 195.342 95.7574 195.73 95.7284 195.998V195.991ZM93.7626 192.597C93.4048 191.991 92.9206 191.535 92.3026 191.226C91.6847 190.918 91.0125 190.762 90.2862 190.762C89.1948 190.762 88.2625 191.114 87.4927 191.817C86.723 192.521 86.2966 193.511 86.2099 194.791H94.2757C94.2902 193.935 94.1167 193.203 93.7626 192.597Z" fill="#14142B"/>
<path d="M101.933 190.048C102.598 189.656 103.415 189.457 104.38 189.457V190.995H103.982C102.916 190.995 102.063 191.281 101.42 191.858C100.777 192.434 100.455 193.395 100.455 194.744V201.173H98.9844V189.664H100.455V191.709C100.777 190.991 101.272 190.436 101.937 190.044L101.933 190.048Z" fill="#14142B"/>
<path d="M109.023 190.911V198.058C109.023 198.762 109.157 199.248 109.421 199.512C109.688 199.781 110.154 199.911 110.827 199.911H112.171V201.177H110.595C109.558 201.177 108.788 200.934 108.286 200.448C107.784 199.962 107.531 199.164 107.531 198.055V190.908H105.934V189.664H107.531V186.777H109.023V189.664H112.175V190.908H109.023V190.911Z" fill="#14142B"/>
<path d="M125.451 195.991H115.936C115.979 196.861 116.189 197.608 116.565 198.225C116.944 198.845 117.439 199.309 118.057 199.628C118.672 199.944 119.344 200.103 120.074 200.103C121.024 200.103 121.827 199.871 122.481 199.407C123.131 198.943 123.561 198.319 123.774 197.532H125.328C125.046 198.656 124.45 199.574 123.532 200.285C122.614 200.995 121.462 201.351 120.077 201.351C119.001 201.351 118.032 201.108 117.179 200.625C116.326 200.14 115.658 199.451 115.174 198.558C114.689 197.666 114.447 196.622 114.447 195.429C114.447 194.236 114.686 193.188 115.163 192.289C115.64 191.39 116.305 190.701 117.158 190.222C118.01 189.743 118.986 189.504 120.077 189.504C121.169 189.504 122.126 189.743 122.943 190.222C123.763 190.701 124.392 191.342 124.833 192.151C125.274 192.96 125.494 193.855 125.494 194.838C125.494 195.342 125.48 195.73 125.451 195.998V195.991ZM123.485 192.597C123.127 191.991 122.643 191.535 122.025 191.226C121.407 190.918 120.735 190.762 120.009 190.762C118.917 190.762 117.985 191.114 117.215 191.817C116.446 192.521 116.019 193.511 115.933 194.791H123.998C124.013 193.935 123.839 193.203 123.485 192.597Z" fill="#14142B"/>
<path d="M137.445 190.733C138.312 191.585 138.746 192.818 138.746 194.432V201.177H137.297V194.599C137.297 193.348 136.986 192.394 136.361 191.73C135.739 191.07 134.887 190.74 133.81 190.74C132.733 190.74 131.822 191.092 131.164 191.796C130.507 192.499 130.178 193.533 130.178 194.892V201.173H128.707V189.663H130.178V191.625C130.543 190.922 131.067 190.385 131.753 190.012C132.44 189.638 133.217 189.453 134.084 189.453C135.457 189.453 136.578 189.877 137.445 190.73V190.733Z" fill="#14142B"/>
<path d="M142.573 192.293C143.05 191.4 143.704 190.712 144.539 190.226C145.37 189.74 146.313 189.497 147.365 189.497C148.416 189.497 149.284 189.743 150.097 190.233C150.91 190.726 151.503 191.364 151.882 192.151V185.573H153.353V201.173H151.882V198.602C151.531 199.403 150.957 200.06 150.158 200.575C149.36 201.09 148.42 201.343 147.343 201.343C146.266 201.343 145.352 201.097 144.517 200.607C143.682 200.118 143.032 199.422 142.562 198.522C142.092 197.623 141.857 196.582 141.857 195.404C141.857 194.225 142.096 193.188 142.573 192.296V192.293ZM151.311 192.978C150.932 192.274 150.418 191.734 149.768 191.353C149.117 190.973 148.398 190.784 147.614 190.784C146.83 190.784 146.075 190.965 145.431 191.332C144.788 191.698 144.279 192.227 143.91 192.924C143.538 193.62 143.354 194.446 143.354 195.4C143.354 196.354 143.538 197.166 143.91 197.877C144.282 198.588 144.788 199.128 145.431 199.501C146.075 199.875 146.805 200.06 147.614 200.06C148.424 200.06 149.117 199.871 149.768 199.491C150.418 199.11 150.935 198.569 151.311 197.866C151.69 197.162 151.878 196.347 151.878 195.422C151.878 194.497 151.69 193.678 151.311 192.978Z" fill="#14142B"/>
<path d="M159.344 200.618C158.484 200.132 157.805 199.443 157.306 198.551C156.807 197.659 156.562 196.615 156.562 195.422C156.562 194.229 156.814 193.184 157.317 192.292C157.823 191.4 158.506 190.711 159.377 190.225C160.244 189.74 161.216 189.497 162.297 189.497C163.377 189.497 164.353 189.74 165.227 190.225C166.102 190.711 166.788 191.4 167.287 192.292C167.786 193.184 168.032 194.229 168.032 195.422C168.032 196.615 167.779 197.641 167.276 198.54C166.774 199.44 166.08 200.132 165.198 200.618C164.317 201.104 163.337 201.343 162.257 201.343C161.176 201.343 160.208 201.1 159.348 200.618H159.344ZM164.353 199.545C164.996 199.2 165.52 198.682 165.918 197.985C166.315 197.289 166.517 196.437 166.517 195.425C166.517 194.414 166.322 193.562 165.928 192.865C165.534 192.169 165.018 191.651 164.374 191.306C163.731 190.962 163.03 190.791 162.275 190.791C161.52 190.791 160.819 190.962 160.175 191.306C159.532 191.651 159.015 192.169 158.632 192.865C158.246 193.562 158.054 194.414 158.054 195.425C158.054 196.437 158.246 197.289 158.632 197.985C159.019 198.682 159.528 199.2 160.164 199.545C160.8 199.889 161.498 200.06 162.253 200.06C163.008 200.06 163.71 199.889 164.353 199.545Z" fill="#14142B"/>
<path d="M186.054 187.328C187.217 187.919 188.106 188.768 188.721 189.877C189.339 190.987 189.646 192.311 189.646 193.841C189.646 195.371 189.339 196.669 188.721 197.772C188.103 198.874 187.214 199.719 186.054 200.303C184.894 200.886 183.499 201.177 181.873 201.177H177.525V186.443H181.873C183.499 186.443 184.89 186.737 186.054 187.328ZM186.549 198.341C187.619 197.267 188.157 195.766 188.157 193.841C188.157 191.915 187.622 190.389 186.549 189.297C185.479 188.209 183.918 187.665 181.876 187.665H179V199.954H181.876C183.922 199.954 185.479 199.418 186.549 198.341Z" fill="#14142B"/>
<path d="M192.913 192.292C193.382 191.4 194.033 190.711 194.868 190.225C195.702 189.74 196.642 189.497 197.694 189.497C198.745 189.497 199.728 189.75 200.52 190.254C201.311 190.758 201.882 191.408 202.233 192.194V189.663H203.703V201.173H202.233V198.624C201.868 199.411 201.289 200.06 200.498 200.575C199.707 201.089 198.763 201.343 197.672 201.343C196.581 201.343 195.699 201.097 194.868 200.607C194.037 200.118 193.382 199.421 192.913 198.522C192.443 197.623 192.208 196.582 192.208 195.404C192.208 194.225 192.443 193.188 192.913 192.296V192.292ZM201.662 192.978C201.282 192.274 200.769 191.734 200.118 191.353C199.468 190.972 198.749 190.784 197.965 190.784C197.181 190.784 196.425 190.965 195.782 191.331C195.139 191.698 194.629 192.227 194.261 192.923C193.888 193.62 193.704 194.446 193.704 195.4C193.704 196.354 193.888 197.166 194.261 197.877C194.633 198.587 195.139 199.128 195.782 199.501C196.425 199.875 197.155 200.06 197.965 200.06C198.774 200.06 199.468 199.871 200.118 199.49C200.769 199.11 201.286 198.569 201.662 197.866C202.041 197.162 202.229 196.346 202.229 195.422C202.229 194.497 202.041 193.678 201.662 192.978Z" fill="#14142B"/>
<path d="M207.628 192.293C208.105 191.4 208.759 190.712 209.593 190.226C210.425 189.74 211.368 189.497 212.419 189.497C213.471 189.497 214.338 189.743 215.151 190.233C215.965 190.726 216.557 191.364 216.937 192.151V185.573H218.407V201.173H216.937V198.602C216.586 199.403 216.011 200.06 215.213 200.575C214.414 201.09 213.475 201.343 212.398 201.343C211.321 201.343 210.407 201.097 209.572 200.607C208.737 200.118 208.087 199.422 207.617 198.522C207.147 197.623 206.912 196.582 206.912 195.404C206.912 194.225 207.151 193.188 207.628 192.296V192.293ZM216.366 192.978C215.986 192.274 215.473 191.734 214.823 191.353C214.172 190.973 213.453 190.784 212.669 190.784C211.885 190.784 211.129 190.965 210.486 191.332C209.843 191.698 209.333 192.227 208.965 192.924C208.592 193.62 208.408 194.446 208.408 195.4C208.408 196.354 208.592 197.166 208.965 197.877C209.337 198.588 209.843 199.128 210.486 199.501C211.129 199.875 211.859 200.06 212.669 200.06C213.478 200.06 214.172 199.871 214.823 199.491C215.473 199.11 215.99 198.569 216.366 197.866C216.745 197.162 216.933 196.347 216.933 195.422C216.933 194.497 216.745 193.678 216.366 192.978Z" fill="#14142B"/>
<path d="M224.403 200.618C223.543 200.132 222.863 199.443 222.365 198.551C221.866 197.659 221.62 196.615 221.62 195.422C221.62 194.229 221.873 193.184 222.375 192.292C222.881 191.4 223.564 190.711 224.435 190.225C225.303 189.74 226.275 189.497 227.355 189.497C228.436 189.497 229.411 189.74 230.286 190.225C231.16 190.711 231.847 191.4 232.346 192.292C232.844 193.184 233.09 194.229 233.09 195.422C233.09 196.615 232.837 197.641 232.335 198.54C231.833 199.44 231.139 200.132 230.257 200.618C229.375 201.104 228.396 201.343 227.315 201.343C226.235 201.343 225.266 201.1 224.406 200.618H224.403ZM229.411 199.545C230.055 199.2 230.579 198.682 230.976 197.985C231.374 197.289 231.576 196.437 231.576 195.425C231.576 194.414 231.381 193.562 230.987 192.865C230.593 192.169 230.076 191.651 229.433 191.306C228.79 190.962 228.089 190.791 227.333 190.791C226.578 190.791 225.877 190.962 225.234 191.306C224.591 191.651 224.074 192.169 223.691 192.865C223.304 193.562 223.113 194.414 223.113 195.425C223.113 196.437 223.304 197.289 223.691 197.985C224.077 198.682 224.587 199.2 225.223 199.545C225.859 199.889 226.556 200.06 227.312 200.06C228.067 200.06 228.768 199.889 229.411 199.545Z" fill="#14142B"/>
<path d="M237.028 200.43C236.194 199.817 235.727 198.986 235.63 197.931H237.144C237.213 198.577 237.52 199.102 238.058 199.501C238.597 199.9 239.323 200.103 240.234 200.103C241.032 200.103 241.658 199.915 242.113 199.534C242.568 199.153 242.796 198.685 242.796 198.123C242.796 197.732 242.669 197.405 242.416 197.155C242.164 196.901 241.846 196.702 241.462 196.553C241.076 196.405 240.555 196.249 239.898 196.078C239.045 195.853 238.351 195.629 237.82 195.404C237.289 195.179 236.837 194.845 236.465 194.403C236.092 193.96 235.908 193.366 235.908 192.622C235.908 192.06 236.074 191.542 236.414 191.063C236.75 190.585 237.227 190.207 237.841 189.925C238.459 189.645 239.157 189.504 239.941 189.504C241.173 189.504 242.167 189.816 242.922 190.443C243.678 191.067 244.086 191.93 244.14 193.025H242.669C242.626 192.35 242.366 191.807 241.882 191.39C241.397 190.976 240.736 190.769 239.898 190.769C239.157 190.769 238.553 190.947 238.091 191.295C237.628 191.647 237.397 192.082 237.397 192.601C237.397 193.05 237.534 193.42 237.805 193.707C238.08 193.993 238.42 194.222 238.824 194.381C239.229 194.544 239.775 194.722 240.461 194.918C241.289 195.143 241.947 195.36 242.435 195.571C242.922 195.781 243.345 196.089 243.696 196.499C244.046 196.905 244.227 197.449 244.241 198.123C244.241 198.743 244.072 199.295 243.735 199.777C243.399 200.263 242.93 200.644 242.33 200.926C241.726 201.206 241.036 201.347 240.252 201.347C238.936 201.347 237.86 201.042 237.028 200.43Z" fill="#14142B"/>
<path d="M35.3171 221.294H24.9566C25.0035 222.244 25.2312 223.053 25.6432 223.727C26.0551 224.402 26.5972 224.91 27.2657 225.254C27.9379 225.599 28.6679 225.769 29.4629 225.769C30.5 225.769 31.3746 225.515 32.0828 225.011C32.7911 224.507 33.2609 223.825 33.4886 222.97H35.1798C34.8763 224.195 34.2222 225.192 33.2248 225.965C32.2274 226.737 30.9734 227.125 29.4629 227.125C28.2884 227.125 27.2368 226.86 26.3045 226.335C25.3757 225.805 24.6458 225.058 24.1218 224.086C23.5942 223.115 23.334 221.98 23.334 220.678C23.334 219.376 23.5942 218.237 24.1109 217.258C24.6277 216.279 25.3541 215.529 26.2828 215.01C27.2115 214.492 28.274 214.23 29.4629 214.23C30.6518 214.23 31.6926 214.492 32.5852 215.01C33.4778 215.532 34.1644 216.232 34.645 217.11C35.1256 217.991 35.3641 218.966 35.3641 220.036C35.3641 220.587 35.3497 221.008 35.3171 221.298V221.294ZM33.1778 217.599C32.7875 216.943 32.2599 216.442 31.5878 216.109C30.9156 215.772 30.1856 215.605 29.3906 215.605C28.2017 215.605 27.1862 215.986 26.3478 216.751C25.5095 217.516 25.0433 218.596 24.9529 219.989H33.7379C33.7524 219.057 33.5681 218.259 33.1778 217.603V217.599Z" fill="#14142B"/>
<path d="M57.3102 215.569C58.2317 216.493 58.6942 217.839 58.6942 219.597V226.941H57.115V219.779C57.115 218.419 56.7862 217.378 56.1321 216.657C55.4744 215.939 54.5854 215.58 53.4543 215.58C52.3232 215.58 51.3439 215.971 50.6392 216.751C49.9381 217.531 49.5876 218.666 49.5876 220.149V226.944H48.0084V219.782C48.0084 218.423 47.6795 217.382 47.0255 216.66C46.3678 215.942 45.4715 215.583 44.326 215.583C43.1804 215.583 42.2156 215.975 41.5109 216.755C40.8098 217.534 40.4593 218.669 40.4593 220.152V226.948H38.8584V214.416H40.4593V216.573C40.8568 215.794 41.4205 215.199 42.1505 214.793C42.8805 214.387 43.6972 214.184 44.597 214.184C45.6811 214.184 46.6279 214.445 47.4446 214.963C48.2613 215.482 48.8504 216.247 49.219 217.259C49.5551 216.265 50.1297 215.504 50.9464 214.974C51.7631 214.445 52.6882 214.184 53.7253 214.184C55.1889 214.184 56.3814 214.648 57.3065 215.572L57.3102 215.569Z" fill="#14142B"/>
<path d="M72.3725 226.045C71.1221 225.341 70.132 224.366 69.3984 223.118C68.6648 221.871 68.2998 220.46 68.2998 218.883C68.2998 217.306 68.6648 215.92 69.3984 214.673C70.132 213.426 71.1221 212.45 72.3725 211.747C73.6228 211.043 74.9961 210.691 76.4885 210.691C77.981 210.691 79.3759 211.043 80.6154 211.747C81.8586 212.45 82.8415 213.426 83.5679 214.673C84.2906 215.92 84.6556 217.324 84.6556 218.883C84.6556 220.442 84.2942 221.871 83.5679 223.118C82.8451 224.366 81.8549 225.341 80.6046 226.045C79.3542 226.748 77.981 227.1 76.4885 227.1C74.9961 227.1 73.6228 226.748 72.3725 226.045ZM79.029 223.579C79.7626 223.144 80.3336 222.52 80.7455 221.708C81.1575 220.895 81.3635 219.956 81.3635 218.883C81.3635 217.81 81.1575 216.874 80.7455 216.073C80.3336 215.271 79.7626 214.655 79.029 214.227C78.2954 213.799 77.4498 213.585 76.4885 213.585C75.5273 213.585 74.6781 213.799 73.9372 214.227C73.1964 214.655 72.6218 215.271 72.2099 216.073C71.7979 216.878 71.5919 217.813 71.5919 218.883C71.5919 219.953 71.7979 220.895 72.2099 221.708C72.6218 222.52 73.1964 223.144 73.9372 223.579C74.6781 224.014 75.5273 224.232 76.4885 224.232C77.4498 224.232 78.2954 224.014 79.029 223.579Z" fill="#14142B"/>
<path d="M92.5152 214.604C93.2379 214.213 94.0655 214.021 94.9978 214.021C96.0819 214.021 97.0613 214.289 97.9358 214.826C98.8139 215.362 99.5078 216.124 100.017 217.11C100.527 218.096 100.783 219.242 100.783 220.54C100.783 221.839 100.527 222.992 100.017 223.996C99.5078 224.997 98.8139 225.777 97.9358 226.324C97.0576 226.875 96.0783 227.151 94.9978 227.151C94.0691 227.151 93.2488 226.959 92.5405 226.578C91.8322 226.197 91.254 225.715 90.8131 225.131V233.004H87.6113V214.227H90.8131V216.062C91.2251 215.482 91.7924 214.996 92.5188 214.604H92.5152ZM97.0432 218.553C96.7288 217.995 96.3204 217.571 95.8073 217.28C95.2978 216.99 94.7449 216.845 94.1486 216.845C93.5523 216.845 93.0247 216.994 92.5116 217.291C91.9984 217.589 91.5901 218.024 91.2757 218.589C90.9613 219.155 90.8059 219.822 90.8059 220.588C90.8059 221.353 90.9613 222.02 91.2757 222.586C91.5901 223.151 91.9984 223.583 92.5116 223.884C93.0211 224.181 93.5668 224.33 94.1486 224.33C94.7304 224.33 95.2941 224.177 95.8073 223.869C96.3168 223.565 96.7288 223.126 97.0432 222.56C97.354 221.994 97.513 221.32 97.513 220.54C97.513 219.761 97.3576 219.115 97.0432 218.557V218.553Z" fill="#14142B"/>
<path d="M106.02 226.331C105.044 225.787 104.278 225.018 103.721 224.025C103.165 223.031 102.887 221.882 102.887 220.584C102.887 219.285 103.172 218.136 103.743 217.139C104.314 216.145 105.098 215.376 106.088 214.832C107.079 214.289 108.184 214.017 109.406 214.017C110.627 214.017 111.733 214.289 112.723 214.832C113.713 215.376 114.498 216.145 115.069 217.139C115.64 218.132 115.925 219.282 115.925 220.584C115.925 221.885 115.632 223.031 115.043 224.025C114.458 225.018 113.663 225.787 112.665 226.331C111.668 226.875 110.548 227.147 109.316 227.147C108.083 227.147 106.996 226.875 106.023 226.331H106.02ZM110.949 223.92C111.459 223.637 111.867 223.213 112.174 222.647C112.478 222.081 112.633 221.392 112.633 220.58C112.633 219.372 112.315 218.441 111.683 217.791C111.05 217.142 110.277 216.816 109.363 216.816C108.448 216.816 107.682 217.142 107.064 217.791C106.446 218.441 106.139 219.372 106.139 220.58C106.139 221.787 106.439 222.719 107.043 223.369C107.646 224.018 108.405 224.344 109.319 224.344C109.897 224.344 110.443 224.203 110.956 223.92H110.949Z" fill="#14142B"/>
<path d="M123.67 214.615C124.335 214.234 125.09 214.042 125.947 214.042V217.414H125.101C124.093 217.414 123.337 217.654 122.824 218.125C122.315 218.6 122.058 219.427 122.058 220.605V226.94H118.856V214.223H122.058V216.196C122.47 215.521 123.009 214.996 123.67 214.611V214.615Z" fill="#14142B"/>
<path d="M132.393 216.864V223.014C132.393 223.441 132.498 223.753 132.7 223.942C132.906 224.134 133.253 224.228 133.741 224.228H135.226V226.937H133.213C130.514 226.937 129.166 225.621 129.166 222.988V216.86H127.655V214.22H129.166V211.076H132.389V214.22H135.226V216.86H132.389L132.393 216.864Z" fill="#14142B"/>
<path d="M150.075 214.224V226.941H146.852V225.334C146.44 225.885 145.902 226.317 145.24 226.632C144.575 226.944 143.856 227.104 143.079 227.104C142.089 227.104 141.211 226.893 140.448 226.473C139.686 226.052 139.086 225.432 138.652 224.613C138.219 223.793 138.002 222.818 138.002 221.686V214.227H141.204V221.229C141.204 222.241 141.457 223.017 141.959 223.557C142.461 224.101 143.148 224.373 144.019 224.373C144.89 224.373 145.598 224.101 146.1 223.557C146.603 223.013 146.856 222.237 146.856 221.229V214.227H150.079L150.075 214.224Z" fill="#14142B"/>
<path d="M164.487 215.475C165.416 216.432 165.882 217.767 165.882 219.482V226.941H162.68V219.917C162.68 218.905 162.427 218.129 161.925 217.589C161.422 217.045 160.736 216.773 159.865 216.773C158.994 216.773 158.282 217.045 157.773 217.589C157.263 218.133 157.006 218.909 157.006 219.917V226.941H153.805V214.224H157.006V215.809C157.433 215.257 157.979 214.826 158.643 214.51C159.308 214.199 160.035 214.039 160.826 214.039C162.337 214.039 163.555 214.518 164.487 215.475Z" fill="#14142B"/>
<path d="M169.712 212.171C169.34 211.812 169.152 211.362 169.152 210.829C169.152 210.296 169.34 209.847 169.712 209.488C170.085 209.129 170.554 208.947 171.118 208.947C171.682 208.947 172.152 209.129 172.524 209.488C172.896 209.847 173.084 210.296 173.084 210.829C173.084 211.362 172.896 211.812 172.524 212.171C172.148 212.53 171.682 212.711 171.118 212.711C170.554 212.711 170.085 212.53 169.712 212.171ZM172.697 214.227V226.944H169.496V214.227H172.697Z" fill="#14142B"/>
<path d="M176.369 217.118C176.878 216.124 177.576 215.359 178.461 214.822C179.347 214.286 180.33 214.017 181.414 214.017C182.238 214.017 183.022 214.199 183.77 214.558C184.518 214.917 185.111 215.395 185.555 215.994V209.956H188.804V226.941H185.555V225.059C185.158 225.686 184.601 226.19 183.886 226.575C183.17 226.956 182.339 227.148 181.392 227.148C180.322 227.148 179.347 226.872 178.465 226.321C177.58 225.77 176.882 224.994 176.373 223.993C175.863 222.992 175.606 221.839 175.606 220.537C175.606 219.235 175.863 218.111 176.373 217.118H176.369ZM185.118 218.575C184.814 218.017 184.402 217.589 183.882 217.292C183.362 216.994 182.805 216.846 182.212 216.846C181.62 216.846 181.067 216.991 180.564 217.281C180.062 217.571 179.654 217.995 179.339 218.554C179.025 219.112 178.87 219.776 178.87 220.537C178.87 221.299 179.025 221.973 179.339 222.546C179.654 223.119 180.062 223.561 180.575 223.866C181.085 224.171 181.631 224.327 182.212 224.327C182.794 224.327 183.365 224.178 183.882 223.881C184.399 223.583 184.811 223.155 185.118 222.597C185.421 222.038 185.577 221.368 185.577 220.588C185.577 219.808 185.425 219.138 185.118 218.579V218.575Z" fill="#14142B"/>
<path d="M192.45 217.117C192.959 216.123 193.653 215.358 194.531 214.822C195.409 214.285 196.389 214.017 197.469 214.017C198.416 214.017 199.244 214.209 199.952 214.59C200.66 214.97 201.227 215.453 201.658 216.036V214.223H204.881V226.94H201.658V225.08C201.246 225.678 200.678 226.172 199.952 226.56C199.229 226.951 198.391 227.143 197.448 227.143C196.381 227.143 195.409 226.868 194.531 226.317C193.653 225.765 192.959 224.989 192.45 223.989C191.94 222.988 191.684 221.835 191.684 220.533C191.684 219.231 191.94 218.107 192.45 217.113V217.117ZM201.199 218.575C200.895 218.016 200.483 217.588 199.963 217.291C199.442 216.994 198.886 216.845 198.293 216.845C197.7 216.845 197.148 216.99 196.645 217.28C196.143 217.57 195.735 217.995 195.42 218.553C195.106 219.111 194.95 219.775 194.95 220.536C194.95 221.298 195.106 221.972 195.42 222.545C195.735 223.118 196.143 223.561 196.656 223.865C197.166 224.17 197.711 224.326 198.293 224.326C198.875 224.326 199.446 224.177 199.963 223.88C200.479 223.582 200.891 223.155 201.199 222.596C201.502 222.038 201.658 221.367 201.658 220.587C201.658 219.808 201.506 219.137 201.199 218.578V218.575Z" fill="#14142B"/>
<path d="M208.531 217.118C209.041 216.124 209.738 215.359 210.623 214.822C211.509 214.286 212.492 214.017 213.576 214.017C214.4 214.017 215.184 214.199 215.932 214.558C216.68 214.917 217.273 215.395 217.717 215.994V209.956H220.966V226.941H217.717V225.059C217.32 225.686 216.763 226.19 216.048 226.575C215.332 226.956 214.501 227.148 213.554 227.148C212.484 227.148 211.509 226.872 210.627 226.321C209.742 225.77 209.044 224.994 208.535 223.993C208.025 222.992 207.769 221.839 207.769 220.537C207.769 219.235 208.025 218.111 208.535 217.118H208.531ZM217.28 218.575C216.976 218.017 216.564 217.589 216.044 217.292C215.524 216.994 214.967 216.846 214.374 216.846C213.782 216.846 213.229 216.991 212.727 217.281C212.224 217.571 211.816 217.995 211.502 218.554C211.187 219.112 211.032 219.776 211.032 220.537C211.032 221.299 211.187 221.973 211.502 222.546C211.816 223.119 212.224 223.561 212.737 223.866C213.247 224.171 213.793 224.327 214.374 224.327C214.956 224.327 215.527 224.178 216.044 223.881C216.561 223.583 216.973 223.155 217.28 222.597C217.583 222.038 217.739 221.368 217.739 220.588C217.739 219.808 217.587 219.138 217.28 218.579V218.575Z" fill="#14142B"/>
<path d="M236.356 221.548H227.091C227.167 222.466 227.488 223.187 228.052 223.706C228.616 224.224 229.31 224.485 230.134 224.485C231.323 224.485 232.168 223.974 232.674 222.948H236.129C235.764 224.174 235.063 225.178 234.026 225.965C232.988 226.752 231.716 227.147 230.206 227.147C228.984 227.147 227.893 226.875 226.925 226.331C225.956 225.787 225.201 225.018 224.659 224.025C224.117 223.031 223.846 221.882 223.846 220.584C223.846 219.285 224.113 218.114 224.648 217.117C225.183 216.123 225.927 215.358 226.888 214.822C227.85 214.285 228.956 214.017 230.206 214.017C231.456 214.017 232.49 214.278 233.444 214.796C234.398 215.318 235.135 216.055 235.663 217.012C236.19 217.969 236.45 219.068 236.45 220.304C236.45 220.765 236.422 221.178 236.36 221.545L236.356 221.548ZM233.129 219.391C233.115 218.564 232.815 217.904 232.237 217.407C231.659 216.91 230.947 216.66 230.108 216.66C229.313 216.66 228.648 216.903 228.106 217.382C227.564 217.86 227.232 218.535 227.113 219.391H233.129Z" fill="#14142B"/>
<path d="M241.413 226.585C240.589 226.212 239.938 225.7 239.458 225.059C238.977 224.417 238.713 223.706 238.67 222.923H241.893C241.955 223.412 242.193 223.818 242.613 224.138C243.032 224.46 243.552 224.62 244.181 224.62C244.81 224.62 245.269 224.497 245.612 224.254C245.955 224.011 246.125 223.695 246.125 223.314C246.125 222.901 245.915 222.593 245.496 222.386C245.077 222.179 244.409 221.955 243.494 221.708C242.547 221.48 241.774 221.24 241.174 220.997C240.574 220.754 240.054 220.377 239.62 219.873C239.187 219.369 238.97 218.687 238.97 217.832C238.97 217.128 239.172 216.486 239.577 215.902C239.982 215.322 240.56 214.862 241.315 214.525C242.07 214.187 242.959 214.021 243.979 214.021C245.489 214.021 246.692 214.398 247.592 215.156C248.492 215.913 248.987 216.936 249.077 218.22H246.013C245.966 217.716 245.756 217.313 245.384 217.016C245.008 216.718 244.51 216.57 243.885 216.57C243.306 216.57 242.858 216.678 242.547 216.892C242.233 217.106 242.078 217.407 242.078 217.788C242.078 218.216 242.291 218.542 242.717 218.764C243.144 218.985 243.809 219.21 244.708 219.442C245.623 219.67 246.378 219.909 246.974 220.152C247.571 220.399 248.084 220.776 248.517 221.287C248.951 221.799 249.179 222.477 249.193 223.318C249.193 224.054 248.991 224.71 248.586 225.291C248.181 225.871 247.603 226.328 246.848 226.658C246.093 226.988 245.211 227.151 244.206 227.151C243.202 227.151 242.24 226.962 241.416 226.589L241.413 226.585Z" fill="#14142B"/>
<path d="M44.1342 43.6448C42.1864 43.6448 40.5204 43.391 39.14 42.8833C37.7595 42.3756 36.6501 41.8644 35.8153 41.3567C34.9806 40.849 34.4349 40.5952 34.1747 40.5952C33.8964 40.5952 33.7085 40.7439 33.6073 41.0448C33.5062 41.3458 33.4339 41.6939 33.3833 42.0928C33.3327 42.4917 33.2532 42.8398 33.1448 43.1408C33.0364 43.4381 32.8232 43.5904 32.5052 43.5904C32.3245 43.5904 32.1763 43.5251 32.0571 43.3946C31.9378 43.2641 31.8475 43.061 31.7896 42.7818L29.3142 33.749C29.2347 33.4698 29.2456 33.2341 29.3431 33.0455C29.4443 32.8569 29.6106 32.7228 29.8491 32.643C30.0876 32.5632 30.2972 32.5777 30.4742 32.6865C30.6513 32.7953 30.8103 32.9802 30.9513 33.2413C31.8836 35.2937 33.0544 36.969 34.453 38.2672C35.8551 39.5654 37.3837 40.5263 39.0424 41.1536C40.7011 41.781 42.3779 42.0964 44.0655 42.0964C46.5698 42.0964 48.5104 41.3857 49.8945 39.957C51.2749 38.5319 51.976 36.7116 51.9977 34.4996C52.0157 33.1434 51.7303 31.867 51.134 30.6703C50.5377 29.4737 49.4355 28.317 47.8238 27.2001C46.2157 26.0832 43.8776 24.9772 40.8168 23.8785C37.9149 22.8015 35.5841 21.6267 33.8278 20.3502C32.0679 19.0738 30.7922 17.6596 29.9972 16.104C29.2022 14.5484 28.8047 12.8151 28.8047 10.9004C28.8047 8.66671 29.3106 6.73758 30.3261 5.11305C31.3379 3.48853 32.7364 2.23024 34.5144 1.34546C36.2924 0.457042 38.345 0.0146484 40.6686 0.0146484C42.6742 0.0146484 44.286 0.253976 45.4966 0.732632C46.7072 1.21129 47.654 1.69357 48.3297 2.1831C49.0055 2.67264 49.5331 2.91559 49.9089 2.91559C50.3281 2.91559 50.5486 2.67989 50.5811 2.21211C50.61 1.74433 50.6497 1.26568 50.7003 0.776146C50.7509 0.286612 50.9822 0.0436579 51.4014 0.0436579C51.6002 0.0436579 51.7556 0.108929 51.864 0.239471C51.9724 0.370014 52.088 0.594837 52.2073 0.91394L55.1886 10.5777C55.2862 10.8388 55.2862 11.0745 55.1886 11.2957C55.0874 11.5169 54.9284 11.6656 54.7116 11.7453C54.4731 11.8251 54.2599 11.8142 54.072 11.7163C53.884 11.6184 53.7178 11.4262 53.5805 11.147C52.4494 8.79362 51.2099 6.91889 49.8692 5.52281C48.5285 4.12673 47.0866 3.11866 45.5471 2.50221C44.0077 1.88576 42.3815 1.5739 40.6722 1.5739C38.0486 1.5739 35.9382 2.33178 34.3373 3.84752C32.7364 5.36326 31.9378 7.38667 31.9378 9.92136C31.9378 11.3573 32.2558 12.7099 32.8918 13.9754C33.5278 15.241 34.63 16.4485 36.202 17.5944C37.7704 18.7402 39.9784 19.8535 42.8188 20.9304C45.9194 22.1089 48.3695 23.3273 50.1655 24.5965C51.9652 25.862 53.2372 27.2291 53.9816 28.6941C54.726 30.1591 55.091 31.8017 55.0694 33.6148C55.0694 35.4315 54.6465 37.0996 53.8009 38.6262C52.9553 40.1528 51.7303 41.3748 50.1185 42.2886C48.5104 43.206 46.512 43.6629 44.1269 43.6629L44.1342 43.6448Z" fill="#14142B"/>
<path d="M87.2674 25.5174C87.2674 26.1955 87.047 26.7104 86.6133 27.0585C86.1761 27.4066 85.5292 27.5807 84.6764 27.5807H64.9417V26.2644H82.4395C83.3718 26.2644 83.8416 25.8655 83.8416 25.0677C83.8416 22.3372 83.1261 20.1216 81.695 18.4282C80.264 16.7348 78.3451 15.8862 75.942 15.8862C74.0122 15.8862 72.3246 16.4048 70.8755 17.4419C69.4264 18.4789 68.2953 19.9149 67.493 21.7498C66.6872 23.5846 66.286 25.6987 66.286 28.0919C66.286 32.2185 67.3015 35.4023 69.3252 37.636C71.3525 39.8698 73.9544 40.9866 77.1345 40.9866C79.4184 40.9866 81.3843 40.3992 83.0213 39.2207C84.6619 38.0458 85.6702 36.5881 86.046 34.8548C86.1436 34.6154 86.2483 34.445 86.3604 34.3471C86.4688 34.2492 86.6025 34.1984 86.7615 34.1984C86.9819 34.1984 87.1337 34.2746 87.2241 34.4233C87.3144 34.5719 87.3469 34.746 87.3289 34.9454C87.1518 36.5192 86.5627 37.9406 85.569 39.2098C84.5752 40.4753 83.2779 41.4798 81.6806 42.2159C80.0797 42.952 78.2981 43.3219 76.3286 43.3219C73.6653 43.3219 71.3417 42.7453 69.3541 41.5886C67.3666 40.4318 65.8307 38.7964 64.7502 36.6824C63.6661 34.5683 63.124 32.088 63.124 29.2342C63.124 26.3804 63.6697 23.9654 64.7647 21.7425C65.856 19.5197 67.3919 17.7501 69.3686 16.4338C71.3453 15.1175 73.6653 14.4575 76.3286 14.4575C78.4354 14.4575 80.3146 14.9253 81.9625 15.8645C83.6103 16.8037 84.9077 18.0982 85.8545 19.7517C86.7976 21.4089 87.271 23.3308 87.271 25.5246L87.2674 25.5174Z" fill="#14142B"/>
<path d="M101.965 15.8247V39.6052C101.965 40.0258 102.085 40.3522 102.323 40.5915C102.562 40.8308 102.898 40.9904 103.335 41.0702L105.033 41.4002C105.63 41.5198 105.926 41.7483 105.926 42.0891C105.926 42.488 105.619 42.6874 105.001 42.6874H95.6413C95.363 42.6874 95.1498 42.633 95.0017 42.5243C94.8535 42.4155 94.7776 42.2704 94.7776 42.0891C94.7776 41.9078 94.8535 41.7664 95.0017 41.654C95.1498 41.5452 95.3739 41.4582 95.6738 41.4002L97.4626 41.0702C97.8999 40.9723 98.2359 40.8127 98.4745 40.5915C98.713 40.3703 98.8322 40.0548 98.8322 39.6342V18.8453C98.8322 18.4863 98.7636 18.2216 98.6226 18.0512C98.4817 17.8808 98.2432 17.7974 97.9071 17.7974L95.1932 17.7684C94.8932 17.7502 94.68 17.6995 94.5535 17.6197C94.4234 17.5399 94.3584 17.4202 94.3584 17.2607C94.3584 17.1229 94.4234 16.9924 94.5535 16.8727C94.6836 16.753 94.8969 16.6442 95.1932 16.5427L99.2767 15.1974C99.714 15.0596 100.072 14.9581 100.35 14.8964C100.628 14.8384 100.856 14.8058 101.037 14.8058C101.355 14.8058 101.589 14.8892 101.738 15.0596C101.886 15.23 101.962 15.4839 101.962 15.8211L101.965 15.8247ZM101.221 21.6883L100.357 20.8506L101.879 19.5923C104.065 17.6995 105.973 16.365 107.603 15.5999C109.233 14.8312 110.833 14.4468 112.402 14.4468C114.866 14.4468 116.843 15.201 118.336 16.7059C119.828 18.2107 120.572 20.2922 120.572 22.9429V39.4239C120.572 39.9025 120.71 40.276 120.992 40.5444C121.27 40.8127 121.646 40.9976 122.126 41.0992L123.648 41.4292C124.222 41.5488 124.511 41.77 124.511 42.0855C124.511 42.4844 124.222 42.6838 123.648 42.6838H114.259C113.645 42.6838 113.334 42.4844 113.334 42.0855C113.334 41.7483 113.634 41.5162 114.227 41.3965L116.016 41.0665C116.511 40.9868 116.876 40.8091 117.103 40.5299C117.331 40.2507 117.447 39.8808 117.447 39.4239V23.4796C117.447 21.1262 116.854 19.3675 115.672 18.1999C114.491 17.0322 112.944 16.4484 111.036 16.4484C109.861 16.4484 108.593 16.7675 107.22 17.4057C105.85 18.0439 104.318 19.0702 102.63 20.488L101.228 21.6846L101.221 21.6883ZM119.792 21.6883L118.957 20.8506L120.446 19.5923C122.632 17.6995 124.54 16.365 126.17 15.5999C127.8 14.8312 129.408 14.4468 130.998 14.4468C133.441 14.4468 135.41 15.201 136.899 16.7059C138.388 18.2107 139.136 20.2922 139.136 22.9429V39.4239C139.136 39.9025 139.274 40.276 139.555 40.5444C139.834 40.8127 140.21 40.9976 140.687 41.0992L142.237 41.4002C142.515 41.4582 142.732 41.5452 142.891 41.654C143.05 41.7628 143.129 41.9078 143.129 42.0891C143.129 42.2704 143.061 42.4119 142.92 42.5243C142.779 42.633 142.551 42.6874 142.233 42.6874H132.841C132.205 42.6874 131.887 42.488 131.887 42.0891C131.887 41.7519 132.187 41.5198 132.783 41.4002L134.572 41.0702C135.067 40.9904 135.432 40.8127 135.66 40.5335C135.888 40.2543 136.003 39.8844 136.003 39.4275V23.4832C136.003 21.1298 135.41 19.3711 134.229 18.2035C133.047 17.0359 131.5 16.4521 129.592 16.4521C128.418 16.4521 127.153 16.7712 125.791 17.4094C124.428 18.0476 122.903 19.0738 121.216 20.4916L119.785 21.6883H119.792Z" fill="#14142B"/>
<path d="M150.584 36.5557C150.584 34.3618 151.549 32.527 153.475 31.0511C155.401 29.5753 158.057 28.8392 161.436 28.8392C162.885 28.8392 164.244 28.9878 165.505 29.2888C166.766 29.5898 167.905 29.956 168.916 30.3948L168.707 31.5624C167.673 31.1418 166.6 30.7937 165.487 30.5144C164.374 30.2352 163.163 30.0938 161.852 30.0938C159.387 30.0938 157.465 30.6377 156.084 31.7256C154.704 32.8134 154.013 34.2748 154.013 36.106C154.013 37.9372 154.555 39.2136 155.64 40.1601C156.724 41.1065 158.09 41.5815 159.738 41.5815C161.385 41.5815 163.091 41.1972 164.67 40.4284C166.25 39.6597 167.648 38.5283 168.859 37.0343L169.426 37.9626C168.132 39.6597 166.553 40.976 164.685 41.9115C162.816 42.8471 160.84 43.3185 158.751 43.3185C156.384 43.3185 154.433 42.7238 152.893 41.538C151.354 40.3523 150.584 38.6915 150.584 36.5557ZM168.143 39.1883V38.6516L168.024 38.4123V22.4643C168.024 20.2524 167.482 18.5662 166.398 17.4094C165.314 16.2527 163.76 15.6761 161.732 15.6761C159.705 15.6761 158.249 16.0859 157.306 16.9018C156.362 17.7213 155.889 18.6786 155.889 19.7737V21.6593C155.889 22.2794 155.705 22.7399 155.336 23.0518C154.967 23.36 154.487 23.5159 153.891 23.5159C153.334 23.5159 152.893 23.331 152.564 22.9611C152.235 22.5913 152.073 22.1198 152.073 21.5397C152.073 20.343 152.492 19.208 153.323 18.1311C154.158 17.0541 155.347 16.1765 156.886 15.4984C158.426 14.8204 160.24 14.4795 162.325 14.4795C165.306 14.4795 167.522 15.1866 168.974 16.6044C170.423 18.0223 171.15 19.8934 171.15 22.2286V39.3406C171.15 40.1166 171.287 40.6677 171.569 40.9868C171.847 41.306 172.216 41.4655 172.671 41.4655C173.228 41.4655 173.614 41.3422 173.835 41.092C174.055 40.8418 174.232 40.5988 174.37 40.3595C174.449 40.2399 174.532 40.142 174.623 40.0622C174.713 39.9824 174.825 39.9425 174.966 39.9425C175.107 39.9425 175.215 39.9933 175.295 40.0912C175.374 40.1927 175.414 40.3414 175.414 40.5408C175.414 40.9615 175.28 41.3821 175.013 41.8136C174.745 42.2415 174.359 42.6005 173.849 42.8906C173.343 43.1807 172.711 43.3257 171.956 43.3257C170.705 43.3257 169.755 42.9958 169.108 42.3394C168.461 41.6831 168.14 40.6351 168.14 39.1991L168.143 39.1883Z" fill="#14142B"/>
<path d="M189.28 15.8247V39.6052C189.28 40.0258 189.399 40.3522 189.638 40.5915C189.876 40.8308 190.212 40.9904 190.649 41.0702L192.348 41.4002C192.944 41.5198 193.24 41.7483 193.24 42.0891C193.24 42.488 192.933 42.6874 192.315 42.6874H182.956C182.677 42.6874 182.464 42.633 182.316 42.5243C182.168 42.4155 182.092 42.2704 182.092 42.0891C182.092 41.9078 182.168 41.7664 182.316 41.654C182.464 41.5452 182.688 41.4582 182.988 41.4002L184.777 41.0702C185.214 40.9723 185.55 40.8127 185.789 40.5915C186.027 40.3703 186.147 40.0548 186.147 39.6342V18.8453C186.147 18.4863 186.078 18.2216 185.937 18.0512C185.796 17.8808 185.558 17.7974 185.222 17.7974L182.508 17.7684C182.208 17.7502 181.994 17.6995 181.868 17.6197C181.738 17.5399 181.673 17.4202 181.673 17.2607C181.673 17.1229 181.738 16.9924 181.868 16.8727C181.998 16.753 182.211 16.6442 182.508 16.5427L186.591 15.1974C187.028 15.0596 187.386 14.9581 187.664 14.8964C187.943 14.8384 188.17 14.8058 188.351 14.8058C188.669 14.8058 188.904 14.8892 189.052 15.0596C189.2 15.23 189.276 15.4839 189.276 15.8211L189.28 15.8247ZM188.535 21.6883L187.672 20.8506L189.193 19.5923C191.358 17.6995 193.262 16.365 194.903 15.5999C196.543 14.8312 198.155 14.4468 199.749 14.4468C202.213 14.4468 204.19 15.201 205.683 16.7059C207.175 18.2107 207.919 20.2922 207.919 22.9429V39.4239C207.919 39.9025 208.057 40.276 208.339 40.5444C208.617 40.8127 208.993 40.9976 209.473 41.0992L211.024 41.4002C211.302 41.4582 211.515 41.5452 211.663 41.654C211.811 41.7628 211.887 41.9078 211.887 42.0891C211.887 42.2704 211.819 42.4119 211.678 42.5243C211.537 42.633 211.32 42.6874 211.024 42.6874H201.603C200.985 42.6874 200.678 42.488 200.678 42.0891C200.678 41.7519 200.974 41.5198 201.57 41.4002L203.359 41.0702C203.836 40.9904 204.194 40.8127 204.432 40.5335C204.671 40.2543 204.79 39.8844 204.79 39.4275V23.4832C204.79 21.1298 204.197 19.3711 203.016 18.2035C201.834 17.0359 200.276 16.4521 198.35 16.4521C197.176 16.4521 195.907 16.7712 194.534 17.4094C193.165 18.0476 191.632 19.0738 189.945 20.4916L188.543 21.6883H188.535Z" fill="#14142B"/>
<path d="M219.357 36.5557C219.357 34.3618 220.322 32.527 222.248 31.0511C224.175 29.5753 226.831 28.8392 230.209 28.8392C231.659 28.8392 233.017 28.9878 234.279 29.2888C235.54 29.5898 236.678 29.956 237.69 30.3948L237.48 31.5624C236.447 31.1418 235.374 30.7937 234.26 30.5144C233.147 30.2352 231.937 30.0938 230.625 30.0938C228.16 30.0938 226.238 30.6377 224.858 31.7256C223.477 32.8134 222.787 34.2748 222.787 36.106C222.787 37.9372 223.329 39.2136 224.413 40.1601C225.497 41.1065 226.863 41.5815 228.511 41.5815C230.159 41.5815 231.865 41.1972 233.444 40.4284C235.023 39.6597 236.422 38.5283 237.632 37.0343L238.199 37.9626C236.906 39.6597 235.327 40.976 233.458 41.9115C231.59 42.8471 229.613 43.3185 227.524 43.3185C225.157 43.3185 223.206 42.7238 221.667 41.538C220.127 40.3523 219.357 38.6915 219.357 36.5557ZM236.917 39.1883V38.6516L236.797 38.4123V22.4643C236.797 20.2524 236.255 18.5662 235.171 17.4094C234.087 16.2527 232.533 15.6761 230.506 15.6761C228.478 15.6761 227.022 16.0859 226.079 16.9018C225.136 17.7213 224.662 18.6786 224.662 19.7737V21.6593C224.662 22.2794 224.478 22.7399 224.109 23.0518C223.741 23.36 223.26 23.5159 222.664 23.5159C222.107 23.5159 221.667 23.331 221.338 22.9611C221.009 22.5913 220.846 22.1198 220.846 21.5397C220.846 20.343 221.265 19.208 222.097 18.1311C222.931 17.0541 224.12 16.1765 225.66 15.4984C227.199 14.8204 229.013 14.4795 231.098 14.4795C234.08 14.4795 236.295 15.1866 237.748 16.6044C239.197 18.0223 239.923 19.8934 239.923 22.2286V39.3406C239.923 40.1166 240.061 40.6677 240.342 40.9868C240.621 41.306 240.989 41.4655 241.445 41.4655C242.001 41.4655 242.388 41.3422 242.608 41.092C242.829 40.8418 243.006 40.5988 243.143 40.3595C243.223 40.2399 243.306 40.142 243.396 40.0622C243.486 39.9824 243.598 39.9425 243.739 39.9425C243.88 39.9425 243.989 39.9933 244.068 40.0912C244.148 40.1927 244.187 40.3414 244.187 40.5408C244.187 40.9615 244.054 41.3821 243.786 41.8136C243.519 42.2415 243.132 42.6005 242.623 42.8906C242.117 43.1807 241.484 43.3257 240.729 43.3257C239.479 43.3257 238.528 42.9958 237.881 42.3394C237.235 41.6831 236.913 40.6351 236.913 39.1991L236.917 39.1883Z" fill="#14142B"/>
<path d="M240.866 163.171C240.288 163.149 239.742 163.269 239.254 163.497C236.288 164.89 233.003 165.455 229.725 165.455H155.766C151.188 165.455 146.631 164.302 142.789 161.807C141.886 161.22 140.809 160.883 139.656 160.883C138.503 160.883 137.423 161.224 136.523 161.807C132.678 164.302 128.121 165.455 123.546 165.455H43.2741C40 165.455 36.7151 164.886 33.7446 163.497C33.2568 163.269 32.7111 163.149 32.1329 163.171C30.3188 163.24 28.8155 164.759 28.7613 166.583C28.7035 168.574 30.2935 170.206 32.2666 170.206C32.7364 170.206 33.1845 170.111 33.5929 169.945C36.5597 168.723 39.682 167.918 42.8874 167.918H123.542C128.121 167.918 132.678 169.071 136.519 171.566C137.423 172.153 138.5 172.49 139.653 172.49C140.805 172.49 141.886 172.149 142.786 171.566C146.631 169.071 151.188 167.918 155.763 167.918H230.104C233.31 167.918 236.432 168.719 239.399 169.945C239.807 170.111 240.255 170.206 240.725 170.206C242.695 170.206 244.288 168.574 244.231 166.583C244.176 164.763 242.673 163.24 240.859 163.171H240.866Z" fill="#D900B1"/>
</g>
<defs>
<clipPath id="clip0_6520_48429">
<rect width="273" height="233" fill="white"/>
</clipPath>
</defs>
</svg>
