<svg width="191" height="50" viewBox="0 0 191 50" fill="none" xmlns="http://www.w3.org/2000/svg">
<path d="M169.616 8.42455L169.595 1.97695L169.057 0H173.967V20.2351L174.815 21.0944H170.981L169.715 18.781C168.251 21.5661 165.397 22.4074 162.689 20.7609C159.144 18.5917 158.6 13.2738 160.186 9.71047C161.318 7.14164 163.685 5.75057 166.324 6.09909C167.411 6.2433 168.338 6.75707 169.051 7.66742C169.187 7.84168 169.453 8.19922 169.453 8.19922L169.61 8.42756L169.616 8.42455ZM169.625 13.6283C169.558 11.9879 169.48 9.95683 168.435 8.55374C167.535 7.35195 166.086 7.35796 165.243 8.59881C163.773 10.9693 163.93 14.3103 164.392 16.9663C165.005 20.3163 167.967 21.2026 169.127 17.5732C169.558 16.3474 169.586 15.0524 169.625 13.6283Z" fill="white"/>
<path d="M109.155 6.46562H111.311C111.86 7.4571 112.416 8.4636 113.029 9.56924C114.05 7.43607 115.608 6.10508 117.936 6.06602C118.742 6.03898 119.527 6.1171 120.291 6.41755C122.516 7.21373 123.413 9.51817 123.338 11.7986L123.359 20.2472L124.204 21.1004H118.029L118.881 20.2472C118.881 20.2472 118.896 13.1506 118.86 11.3329C118.848 10.6989 118.751 10.0409 118.567 9.44005C117.999 7.57427 115.949 7.35194 114.859 8.58077C113.917 9.63534 113.636 11.0895 113.642 12.4776C113.633 13.9047 113.639 20.2411 113.639 20.2411L114.49 21.1034H108.315L109.167 20.2592L109.161 6.46562H109.155Z" fill="white"/>
<path d="M142.512 6.46562H144.668C145.217 7.4571 145.773 8.4636 146.386 9.56924C147.407 7.43607 148.965 6.10508 151.293 6.06602C152.099 6.03898 152.884 6.1171 153.648 6.41755C155.324 7.07853 156.269 8.37647 156.58 10.2182C156.834 12.1922 156.659 19.5982 156.713 20.2472L157.558 21.1004H151.383L152.235 20.2472C152.235 20.2472 152.25 13.1506 152.214 11.3329C152.202 10.6989 152.105 10.0409 151.921 9.44005C151.353 7.57427 149.303 7.35194 148.213 8.58077C147.271 9.63534 146.99 11.0895 146.996 12.4776C146.987 13.9047 146.993 20.2411 146.993 20.2411L147.844 21.1034H141.669L142.521 20.2592L142.515 6.46562H142.512Z" fill="white"/>
<path d="M66.0928 1.2048H79.0981L79.1162 3.81269L75.8822 2.66197H71.2713V10.1521H74.1641L77.3981 9.15765V12.6278L74.1641 11.6363H71.2713C71.2744 12.045 71.2623 20.9562 71.2864 21.0914H65.9448L66.7933 20.2652V3.34099L66.0928 1.2048Z" fill="white"/>
<path d="M126.738 11.6093L126.327 8.22025C126.327 8.22025 129.752 6.042 132.886 6.036C136.02 6.02999 139.013 7.84769 139.016 11.438L139.052 20.2382L139.879 21.0974H135.927L134.661 18.784C133.14 21.6863 130.123 22.0799 127.934 21.0133C125.458 19.8055 125.28 16.4645 127.131 14.8271C129.223 12.9793 132.01 12.2222 134.535 11.5402C134.628 9.78558 134.8 7.60734 132.684 7.47213C131.029 7.36698 126.735 11.6123 126.735 11.6123L126.738 11.6093ZM134.553 12.3634C132.376 12.9763 129.006 14.8481 130.283 18.3754C130.926 20.157 132.958 20.0188 133.747 18.3363C134.513 16.762 134.595 14.1901 134.556 12.3634H134.553Z" fill="white"/>
<path d="M177.856 11.6093L177.446 8.22025C177.446 8.22025 180.87 6.042 184.004 6.036C187.138 6.02999 190.131 7.84769 190.134 11.438L190.17 20.2382L190.997 21.0974H187.045L185.78 18.784C184.258 21.6863 181.241 22.0799 179.052 21.0133C176.576 19.8055 176.398 16.4645 178.249 14.8271C180.341 12.9793 183.128 12.2222 185.653 11.5402C185.746 9.78558 185.919 7.60734 183.802 7.47213C182.147 7.36698 177.853 11.6123 177.853 11.6123L177.856 11.6093ZM185.671 12.3634C183.494 12.9763 180.124 14.8481 181.401 18.3754C182.044 20.157 184.077 20.0188 184.865 18.3363C185.632 16.762 185.713 14.1901 185.674 12.3634H185.671Z" fill="white"/>
<path d="M93.595 13.8176H84.6691C84.6691 13.8176 84.4276 17.3088 85.7683 19.1776C86.6228 20.3734 88.2171 20.4725 89.2921 19.4991C90.1889 18.6668 90.5573 17.5972 91.0918 16.4796C91.9342 17.2157 92.7133 17.8917 93.5074 18.5857C91.7893 21.8035 86.7375 22.2031 83.8599 20.7489C81.8187 19.7334 80.5806 18.0239 80.1277 15.6834C79.1312 11.1286 81.7039 6.38152 86.2695 6.09009C90.9559 5.60637 93.7581 8.91129 93.592 13.8176H93.595ZM89.5095 12.3935C89.5578 10.9543 89.437 9.61133 88.7244 8.43057C87.8699 7.00645 86.191 7.06053 85.3999 8.52071C84.7597 9.70147 84.6329 11.7355 84.6148 13.1115L89.5095 12.3905V12.3935Z" fill="white"/>
<path d="M101.887 21.1005H95.7119L96.5695 20.2472V6.48668H98.7587C99.3777 7.59533 100.009 8.73403 100.712 9.9929C101.476 8.11811 102.461 6.6339 104.309 6.1622C105.154 5.94587 106.018 5.98193 106.93 6.43861L106.078 10.2513C106.078 10.2513 105.35 9.71048 104.106 9.69546C102.252 9.66842 100.984 10.6118 101.035 13.5352V20.2502L101.887 21.1035V21.1005Z" fill="white"/>
<path d="M66.0928 28.6537H79.0981L79.1162 31.2616L75.8822 30.1109H71.2713V37.601H74.1641L77.3981 36.8469V39.8334L74.1641 39.0852H71.2713C71.2744 39.4938 71.2623 48.4051 71.2864 48.5403H65.9448L66.7933 47.7141V30.3032L66.0928 28.6507V28.6537Z" fill="white"/>
<path d="M81.0667 39.0582L80.656 35.6692C80.656 35.6692 84.0802 33.4909 87.2145 33.4849C90.3519 33.4789 93.3413 35.2966 93.3443 38.887L93.3805 47.6871L94.2079 48.5463H90.2553L88.9901 46.2329C87.4682 49.1352 84.4516 49.5288 82.2624 48.4622C79.7864 47.2544 79.6082 43.9134 81.4592 42.276C83.5518 40.4283 86.3389 39.6711 88.8632 38.9891C88.9568 37.2345 89.129 35.0563 87.0122 34.9211C85.3575 34.8159 81.0637 39.0612 81.0637 39.0612L81.0667 39.0582ZM88.8814 39.8123C86.7042 40.4252 83.3344 42.297 84.6117 45.8243C85.2548 47.6059 87.287 47.4677 88.0751 45.7852C88.8421 44.2109 88.9236 41.6391 88.8844 39.8123H88.8814Z" fill="white"/>
<path d="M124.328 41.2665H115.403C115.403 41.2665 115.161 44.7577 116.502 46.6265C117.356 47.8223 118.951 47.9214 120.025 46.9479C120.922 46.1157 121.291 45.0461 121.825 43.9285C122.668 44.6645 123.447 45.3406 124.241 46.0346C122.523 49.2524 117.471 49.652 114.593 48.1978C112.552 47.1823 111.314 45.4727 110.861 43.1323C109.865 38.5775 112.437 33.8304 117.003 33.539C121.689 33.0552 124.491 36.3602 124.325 41.2665H124.328ZM120.243 39.8424C120.291 38.4032 120.17 37.0602 119.458 35.8795C118.603 34.4553 116.924 34.5094 116.133 35.9696C115.493 37.1504 115.366 39.1844 115.348 40.5604L120.243 39.8394V39.8424Z" fill="white"/>
<path d="M65.9478 28.7018H79.0981L79.1162 31.3127L77.3286 30.159H71.2744V37.6521L77.4011 36.7898V39.9926L71.2744 39.1333V47.7502L72.1229 48.5914H65.9448L66.7963 47.7652L66.7933 30.838L65.9478 28.7018Z" fill="white"/>
<path d="M108.303 35.6301L107.259 38.5985C107.259 38.5985 105.106 34.7228 103.397 34.7468C102.892 34.7558 102.385 35.0082 101.959 35.4468C101.331 36.0958 100.99 36.922 100.803 37.8023C100.284 40.269 100.277 42.7357 100.957 45.1753C101.18 45.9835 101.567 46.7076 102.298 47.1343C104.553 48.2669 105.99 45.8183 106.67 43.4628C107.5 44.0246 108.258 44.5354 109.073 45.0852C108.518 46.7857 107.111 48.0086 105.468 48.4622C102.669 49.2494 100.075 48.7987 97.9282 46.6475C94.2685 42.9791 95.1744 36.1048 100.341 34.0077C104.112 32.3733 106.902 34.1729 108.31 35.6331L108.303 35.6301Z" fill="white"/>
<path d="M5.09451 11.4861C7.90875 11.4861 10.1885 9.21773 10.1885 6.41756C9.91978 -0.30345 0.26923 -0.300446 0.000488281 6.41756C0.000488281 9.21773 2.28027 11.4861 5.09451 11.4861Z" fill="#D900B1"/>
<path d="M5.09454 29.5671C7.84537 29.6211 9.92888 27.3798 10.1704 24.9101C10.415 22.4254 11.3994 20.0729 13.1749 18.3093L17.043 14.4606C18.8306 12.6819 21.2191 11.7115 23.7374 11.4681C26.2195 11.2277 28.4751 9.15766 28.4207 6.41758C28.4207 3.61741 26.141 1.34903 23.3267 1.34903C20.5729 1.29194 18.4924 3.53629 18.2508 6.00897C18.0062 8.5117 17.0309 10.8912 15.2433 12.6699L11.4417 16.4525C9.63598 18.2492 7.2173 19.2076 4.67482 19.451C2.13234 19.6944 -0.0387303 21.7464 0.000524151 24.5015C0.000524151 27.3017 2.2803 29.5701 5.09454 29.5701V29.5671Z" fill="#D900B1"/>
<path d="M23.3235 37.5139C20.5093 37.5139 18.2295 39.7823 18.2295 42.5825C18.4982 49.3035 28.1488 49.3035 28.4145 42.5825C28.4145 39.7823 26.1347 37.5139 23.3205 37.5139H23.3235Z" fill="#D900B1"/>
<path d="M41.553 19.433C38.7388 19.433 36.459 21.7014 36.459 24.5015C36.7277 31.2225 46.3783 31.2225 46.644 24.5015C46.644 21.7014 44.3642 19.433 41.55 19.433H41.553Z" fill="#D900B1"/>
<path d="M41.553 37.5139C38.7388 37.5139 36.459 39.7823 36.459 42.5825C36.7277 49.3035 46.3783 49.3035 46.644 42.5825C46.644 39.7823 44.3642 37.5139 41.55 37.5139H41.553Z" fill="#D900B1"/>
<path d="M35.2087 14.4668C37.0144 12.6702 39.4331 11.7117 41.9756 11.4684C44.4516 11.231 46.6891 9.17294 46.6469 6.41784C46.6469 3.61767 44.3671 1.34929 41.5528 1.34929C38.802 1.29521 36.7185 3.53655 36.4769 6.00622C36.2324 8.49093 35.248 10.8434 33.4725 12.6071L29.4444 16.615C27.7141 18.3366 25.386 19.2379 22.9462 19.4302C20.4883 19.6225 18.4229 21.6806 18.2266 24.1262C18.0304 26.5719 17.1275 28.8673 15.4003 30.5888L11.4356 34.5337C9.62992 36.3304 7.21125 37.2888 4.66877 37.5322C2.19574 37.7695 -0.0387448 39.8276 0.000509591 42.5827C0.000509591 45.3829 2.28029 47.6513 5.09453 47.6513C7.84536 47.7054 9.92886 45.464 10.1704 42.9943C10.415 40.5096 11.3994 38.1571 13.1749 36.3935L17.203 32.3855C18.9332 30.664 21.2613 29.7626 23.7011 29.5703C26.1591 29.378 28.2244 27.32 28.4207 24.8743C28.614 22.4467 29.5198 20.1333 31.247 18.4117L35.2117 14.4668H35.2087Z" fill="#D900B1"/>
</svg>
