<svg width="193" height="165" viewBox="0 0 193 165" fill="none" xmlns="http://www.w3.org/2000/svg">
<g clip-path="url(#clip0_6456_48185)">
<path d="M62.5894 42.3787C62.5894 42.3787 82.5651 42.2168 92.102 42.3247C99.5901 42.4095 106.623 44.2672 112.898 48.53C119.359 52.9213 123.301 59.0135 124.491 66.758C126.316 78.6265 120.7 89.5571 110.095 95.2203C104.858 98.0184 99.2579 99.4702 93.3769 99.6629C87.9838 99.8402 82.583 99.7452 77.1847 99.7554C72.7292 99.7657 62.5919 99.6501 62.5919 99.6501V98.0673C62.5919 98.0673 66.4879 94.3595 68.2098 92.8409V49.2109C66.9657 48.1009 62.5919 43.9615 62.5919 43.9615V42.3787H62.5894ZM85.0994 97.9979C86.6144 97.9979 87.9659 98.0339 89.3173 97.9902C92.613 97.8874 95.5791 96.8545 98.162 94.7603C101.682 91.9082 103.772 88.1285 105.057 83.858C107.29 76.4373 107.456 68.9164 105.9 61.3595C105.131 57.6209 103.857 54.0544 101.593 50.9248C98.8466 47.1271 95.2955 44.6167 90.5487 44.1413C89.0951 43.9949 87.6184 44.0463 86.152 44.036C85.8096 44.036 85.4699 44.1516 85.0994 44.221V97.9953V97.9979Z" fill="white"/>
<path d="M160.927 41.0399C169.501 41.1247 176.593 43.2317 182.653 48.3373C188.008 52.8519 191.301 58.5998 192.494 65.5015C193.503 71.3317 193.046 77.0796 190.762 82.5732C187.517 90.3819 181.861 95.8112 174.023 98.7559C165.595 101.924 157.013 101.96 148.695 98.4681C138.407 94.1488 132.273 86.3041 130.789 75.114C129.488 65.3191 132.202 56.7113 139.248 49.7094C144.109 44.8788 150.087 42.2322 156.853 41.3919C158.459 41.1915 160.084 41.1067 160.93 41.0348L160.927 41.0399ZM149.022 70.9257C149.022 72.0306 148.999 73.138 149.027 74.2429C149.15 79.1506 149.584 84.0198 150.997 88.7503C151.679 91.0345 152.624 93.1903 153.991 95.156C157.696 100.485 165.654 100.498 169.299 95.228C169.984 94.2387 170.6 93.1852 171.126 92.1009C172.518 89.2308 173.162 86.1397 173.627 83.0049C174.442 77.5087 174.486 71.9792 174.291 66.4445C174.148 62.3307 173.709 58.2504 172.674 54.2523C171.956 51.4772 170.86 48.8795 169.141 46.5618C165.477 41.6283 157.851 41.6335 154.206 46.6132C153.71 47.2889 153.189 47.9801 152.865 48.7433C152.085 50.5779 151.273 52.4176 150.729 54.3293C149.181 59.7458 149.081 65.3448 149.027 70.9257H149.022Z" fill="white"/>
<path d="M56.6444 79.4333C57.2013 79.7082 57.6586 79.9318 58.2334 80.217C57.4568 82.7916 56.509 85.2249 55.2137 87.5144C51.2257 94.5599 45.4162 99.1644 37.361 100.429C26.2886 102.168 16.2816 99.8402 8.07055 91.7746C3.52817 87.3139 1.03727 81.769 0.250404 75.4275C-1.34377 62.5851 4.83366 51.4618 15.9086 45.5263C25.5145 40.377 35.5599 39.6807 45.8684 43.1906C46.9541 43.5606 47.9479 43.6968 49.072 43.427C51.0571 42.9491 57.0301 42.0523 57.0301 42.0523L57.0582 67.3258H55.4922C53.8776 64.6998 52.2476 62.0635 50.6355 59.4195C48.114 55.2878 45.5388 51.1869 43.1143 46.9986C41.7526 44.6449 39.6807 43.7944 37.2154 43.8484C29.3594 44.0231 24.0557 48.0855 20.8112 55.0951C19.5593 57.7982 18.9794 60.6966 18.7035 63.6489C18.2309 68.7391 18.4761 73.783 20.2261 78.629C22.597 85.1941 27.0474 89.6599 33.9708 90.978C42.3632 92.5763 49.2279 89.7344 54.4064 82.8893C55.1958 81.846 55.8396 80.6949 56.6495 79.4359L56.6444 79.4333Z" fill="white"/>
<path d="M20.5683 134.467C21.0128 133.655 21.6234 133.023 22.3949 132.57C23.1665 132.118 24.0274 131.892 24.9804 131.892C26.1377 131.892 27.1315 132.17 27.9592 132.722C28.787 133.274 29.3873 134.053 29.7629 135.06H28.5443C28.2479 134.354 27.7932 133.801 27.1851 133.403C26.5771 133.005 25.8413 132.804 24.9804 132.804C24.219 132.804 23.5318 132.984 22.9238 133.341C22.3157 133.701 21.838 134.215 21.4905 134.888C21.1431 135.561 20.9719 136.34 20.9719 137.226C20.9719 138.113 21.1457 138.889 21.4905 139.557C21.838 140.225 22.3157 140.736 22.9238 141.096C23.5318 141.456 24.219 141.633 24.9804 141.633C25.8413 141.633 26.5771 141.438 27.1851 141.042C27.7932 140.649 28.2479 140.104 28.5443 139.405H29.7629C29.3873 140.402 28.7819 141.173 27.9516 141.72C27.1213 142.268 26.13 142.543 24.9804 142.543C24.03 142.543 23.169 142.316 22.3949 141.864C21.6234 141.412 21.0128 140.783 20.5683 139.976C20.1237 139.169 19.8989 138.254 19.8989 137.226C19.8989 136.199 20.1212 135.281 20.5683 134.472V134.467Z" fill="white"/>
<path d="M33.6893 142.054C33.0813 141.71 32.601 141.222 32.2485 140.59C31.8959 139.958 31.7222 139.218 31.7222 138.372C31.7222 137.527 31.901 136.787 32.2561 136.155C32.6138 135.523 33.0966 135.035 33.7123 134.69C34.3255 134.346 35.0127 134.174 35.7766 134.174C36.5405 134.174 37.2302 134.346 37.8485 134.69C38.4668 135.035 38.9522 135.523 39.3047 136.155C39.6573 136.787 39.831 137.527 39.831 138.372C39.831 139.218 39.6522 139.945 39.2971 140.582C38.9419 141.219 38.4514 141.71 37.8281 142.054C37.2047 142.399 36.5124 142.568 35.7485 142.568C34.9846 142.568 34.2999 142.396 33.6919 142.054H33.6893ZM37.2302 141.294C37.685 141.05 38.0554 140.682 38.3365 140.189C38.6175 139.696 38.7606 139.092 38.7606 138.375C38.7606 137.658 38.6226 137.054 38.3441 136.561C38.0657 136.068 37.7003 135.7 37.2456 135.456C36.7908 135.212 36.2952 135.091 35.7613 135.091C35.2273 135.091 34.7317 135.212 34.2769 135.456C33.8222 135.7 33.4569 136.068 33.186 136.561C32.9127 137.054 32.7773 137.658 32.7773 138.375C32.7773 139.092 32.9127 139.696 33.186 140.189C33.4594 140.682 33.8196 141.05 34.2693 141.294C34.7189 141.538 35.212 141.659 35.7459 141.659C36.2799 141.659 36.7755 141.538 37.2302 141.294Z" fill="white"/>
<path d="M48.28 135.05C48.8931 135.654 49.1997 136.527 49.1997 137.671V142.45H48.1752V137.789C48.1752 136.903 47.9555 136.227 47.5135 135.757C47.0741 135.289 46.4712 135.055 45.7099 135.055C44.9486 135.055 44.3048 135.304 43.8398 135.803C43.3748 136.301 43.1423 137.034 43.1423 137.997V142.448H42.1025V134.292H43.1423V135.682C43.4004 135.184 43.7708 134.803 44.2562 134.539C44.7416 134.274 45.2909 134.143 45.904 134.143C46.8748 134.143 47.6668 134.444 48.28 135.047V135.05Z" fill="white"/>
<path d="M54.7536 141.435L57.4872 134.295H58.5858L55.3335 142.45H54.1609L50.9087 134.295H52.0226L54.7562 141.435H54.7536Z" fill="white"/>
<path d="M67.6758 138.776H60.9491C60.9797 139.392 61.1279 139.922 61.3936 140.359C61.6618 140.798 62.0118 141.127 62.4487 141.353C62.883 141.576 63.3582 141.69 63.8743 141.69C64.5462 141.69 65.1133 141.525 65.5757 141.196C66.0356 140.867 66.3396 140.425 66.4903 139.868H67.5889C67.3896 140.664 66.9681 141.314 66.3192 141.818C65.6703 142.322 64.8553 142.573 63.8768 142.573C63.1155 142.573 62.4308 142.401 61.8279 142.06C61.225 141.715 60.7523 141.227 60.41 140.595C60.0677 139.963 59.8965 139.223 59.8965 138.377C59.8965 137.532 60.0651 136.79 60.4023 136.152C60.7396 135.515 61.2096 135.027 61.8126 134.688C62.4155 134.349 63.1053 134.179 63.8768 134.179C64.6484 134.179 65.3254 134.349 65.9027 134.688C66.4827 135.027 66.9272 135.482 67.2389 136.055C67.5506 136.628 67.7064 137.262 67.7064 137.959C67.7064 138.316 67.6962 138.591 67.6758 138.781V138.776ZM66.286 136.371C66.033 135.942 65.6907 135.618 65.2538 135.399C64.817 135.181 64.3418 135.071 63.8283 135.071C63.0567 135.071 62.3976 135.32 61.8534 135.818C61.3093 136.317 61.0078 137.018 60.9465 137.925H66.6487C66.659 137.319 66.5363 136.8 66.286 136.371Z" fill="white"/>
<path d="M72.0622 134.564C72.5323 134.287 73.1097 134.146 73.7918 134.146V135.235H73.5108C72.7571 135.235 72.1542 135.438 71.6995 135.847C71.2447 136.255 71.0173 136.936 71.0173 137.892V142.448H69.9775V134.292H71.0173V135.741C71.2447 135.232 71.5947 134.839 72.0648 134.562L72.0622 134.564Z" fill="white"/>
<path d="M77.0745 135.176V140.24C77.0745 140.739 77.169 141.083 77.3555 141.271C77.5445 141.461 77.8741 141.553 78.3493 141.553H79.2997V142.45H78.1858C77.4526 142.45 76.9084 142.278 76.5533 141.934C76.1982 141.589 76.0193 141.024 76.0193 140.238V135.173H74.8901V134.292H76.0193V132.247H77.0745V134.292H79.3022V135.173H77.0745V135.176Z" fill="white"/>
<path d="M88.6884 138.776H81.9617C81.9924 139.392 82.1406 139.922 82.4063 140.359C82.6745 140.798 83.0245 141.127 83.4614 141.353C83.8957 141.576 84.3709 141.69 84.8869 141.69C85.5589 141.69 86.126 141.525 86.5884 141.196C87.0483 140.867 87.3523 140.425 87.503 139.868H88.6016C88.4023 140.664 87.9808 141.314 87.3319 141.818C86.683 142.322 85.868 142.573 84.8895 142.573C84.1282 142.573 83.4435 142.401 82.8406 142.06C82.2377 141.715 81.765 141.227 81.4227 140.595C81.0803 139.963 80.9092 139.223 80.9092 138.377C80.9092 137.532 81.0778 136.79 81.415 136.152C81.7522 135.515 82.2223 135.027 82.8253 134.688C83.4282 134.349 84.118 134.179 84.8895 134.179C85.661 134.179 86.3381 134.349 86.9154 134.688C87.4954 135.027 87.9399 135.482 88.2516 136.055C88.5633 136.628 88.7191 137.262 88.7191 137.959C88.7191 138.316 88.7089 138.591 88.6884 138.781V138.776ZM87.2987 136.371C87.0457 135.942 86.7034 135.618 86.2665 135.399C85.8297 135.181 85.3545 135.071 84.841 135.071C84.0694 135.071 83.4103 135.32 82.8661 135.818C82.322 136.317 82.0205 137.018 81.9592 137.925H87.6614C87.6717 137.319 87.549 136.8 87.2987 136.371Z" fill="white"/>
<path d="M97.1677 135.05C97.7808 135.654 98.0874 136.527 98.0874 137.671V142.45H97.0629V137.789C97.0629 136.903 96.8432 136.227 96.4012 135.757C95.9618 135.289 95.3589 135.055 94.5976 135.055C93.8362 135.055 93.1924 135.304 92.7275 135.803C92.2625 136.301 92.03 137.034 92.03 137.997V142.448H90.9902V134.292H92.03V135.682C92.2881 135.184 92.6585 134.803 93.1439 134.539C93.6293 134.274 94.1786 134.143 94.7917 134.143C95.7625 134.143 96.5545 134.444 97.1677 135.047V135.05Z" fill="white"/>
<path d="M100.793 136.155C101.13 135.523 101.593 135.035 102.183 134.69C102.77 134.346 103.437 134.174 104.181 134.174C104.924 134.174 105.537 134.349 106.112 134.695C106.687 135.045 107.106 135.497 107.374 136.055V131.394H108.414V142.448H107.374V140.626C107.126 141.194 106.72 141.659 106.155 142.024C105.591 142.388 104.927 142.568 104.165 142.568C103.404 142.568 102.758 142.394 102.167 142.047C101.577 141.7 101.117 141.206 100.785 140.569C100.453 139.932 100.287 139.195 100.287 138.359C100.287 137.524 100.456 136.79 100.793 136.157V136.155ZM106.97 136.641C106.702 136.142 106.339 135.759 105.88 135.489C105.42 135.22 104.911 135.086 104.357 135.086C103.802 135.086 103.269 135.214 102.814 135.474C102.359 135.733 101.999 136.109 101.738 136.602C101.475 137.095 101.345 137.681 101.345 138.357C101.345 139.033 101.475 139.608 101.738 140.112C102.001 140.615 102.359 140.998 102.814 141.263C103.269 141.528 103.785 141.659 104.357 141.659C104.929 141.659 105.42 141.525 105.88 141.255C106.339 140.986 106.705 140.603 106.97 140.104C107.239 139.606 107.371 139.028 107.371 138.372C107.371 137.717 107.239 137.136 106.97 136.641Z" fill="white"/>
<path d="M112.65 142.054C112.042 141.71 111.561 141.222 111.209 140.59C110.856 139.958 110.683 139.218 110.683 138.372C110.683 137.527 110.861 136.787 111.217 136.155C111.574 135.523 112.057 135.035 112.673 134.69C113.286 134.346 113.973 134.174 114.737 134.174C115.501 134.174 116.191 134.346 116.809 134.69C117.427 135.035 117.913 135.523 118.265 136.155C118.618 136.787 118.791 137.527 118.791 138.372C118.791 139.218 118.613 139.945 118.258 140.582C117.902 141.219 117.412 141.71 116.789 142.054C116.165 142.399 115.473 142.568 114.709 142.568C113.945 142.568 113.26 142.396 112.652 142.054H112.65ZM116.191 141.294C116.645 141.05 117.016 140.682 117.297 140.189C117.578 139.696 117.721 139.092 117.721 138.375C117.721 137.658 117.583 137.054 117.305 136.561C117.026 136.068 116.661 135.7 116.206 135.456C115.751 135.212 115.256 135.091 114.722 135.091C114.188 135.091 113.692 135.212 113.237 135.456C112.783 135.7 112.417 136.068 112.147 136.561C111.873 137.054 111.738 137.658 111.738 138.375C111.738 139.092 111.873 139.696 112.147 140.189C112.42 140.682 112.78 141.05 113.23 141.294C113.679 141.538 114.172 141.659 114.706 141.659C115.24 141.659 115.736 141.538 116.191 141.294Z" fill="white"/>
<path d="M131.532 132.637C132.355 133.056 132.983 133.657 133.418 134.444C133.854 135.23 134.072 136.168 134.072 137.252C134.072 138.336 133.854 139.256 133.418 140.037C132.981 140.819 132.352 141.417 131.532 141.831C130.712 142.245 129.726 142.45 128.576 142.45H125.503V132.01H128.576C129.726 132.01 130.71 132.218 131.532 132.637ZM131.882 140.441C132.638 139.68 133.019 138.616 133.019 137.252C133.019 135.888 132.641 134.806 131.882 134.032C131.126 133.262 130.022 132.876 128.579 132.876H126.545V141.584H128.579C130.025 141.584 131.126 141.204 131.882 140.441Z" fill="white"/>
<path d="M136.381 136.155C136.713 135.523 137.173 135.035 137.763 134.69C138.353 134.346 139.018 134.174 139.761 134.174C140.504 134.174 141.199 134.354 141.759 134.711C142.318 135.068 142.722 135.528 142.97 136.086V134.292H144.01V142.448H142.97V140.641C142.712 141.199 142.303 141.659 141.743 142.024C141.184 142.388 140.517 142.568 139.746 142.568C138.974 142.568 138.351 142.394 137.763 142.047C137.176 141.7 136.713 141.207 136.381 140.569C136.049 139.932 135.883 139.195 135.883 138.359C135.883 137.524 136.049 136.79 136.381 136.157V136.155ZM142.566 136.641C142.298 136.142 141.935 135.759 141.475 135.489C141.015 135.22 140.507 135.086 139.953 135.086C139.398 135.086 138.864 135.214 138.409 135.474C137.955 135.733 137.595 136.109 137.334 136.602C137.071 137.095 136.94 137.681 136.94 138.357C136.94 139.033 137.071 139.608 137.334 140.112C137.597 140.616 137.955 140.998 138.409 141.263C138.864 141.528 139.38 141.659 139.953 141.659C140.525 141.659 141.015 141.525 141.475 141.255C141.935 140.986 142.3 140.603 142.566 140.104C142.834 139.606 142.967 139.028 142.967 138.372C142.967 137.717 142.834 137.136 142.566 136.641Z" fill="white"/>
<path d="M146.784 136.155C147.121 135.523 147.584 135.035 148.174 134.69C148.762 134.346 149.428 134.174 150.172 134.174C150.915 134.174 151.528 134.349 152.103 134.695C152.678 135.045 153.097 135.497 153.365 136.055V131.394H154.405V142.448H153.365V140.626C153.117 141.194 152.711 141.659 152.147 142.024C151.582 142.388 150.918 142.568 150.156 142.568C149.395 142.568 148.749 142.394 148.159 142.047C147.568 141.7 147.109 141.206 146.777 140.569C146.444 139.932 146.278 139.195 146.278 138.359C146.278 137.524 146.447 136.79 146.784 136.157V136.155ZM152.962 136.641C152.693 136.142 152.331 135.759 151.871 135.489C151.411 135.22 150.902 135.086 150.348 135.086C149.794 135.086 149.26 135.214 148.805 135.474C148.35 135.733 147.99 136.109 147.729 136.602C147.466 137.095 147.336 137.681 147.336 138.357C147.336 139.033 147.466 139.608 147.729 140.112C147.993 140.615 148.35 140.998 148.805 141.263C149.26 141.528 149.776 141.659 150.348 141.659C150.92 141.659 151.411 141.525 151.871 141.255C152.331 140.986 152.696 140.603 152.962 140.104C153.23 139.606 153.363 139.028 153.363 138.372C153.363 137.717 153.23 137.136 152.962 136.641Z" fill="white"/>
<path d="M158.643 142.054C158.035 141.71 157.555 141.222 157.203 140.59C156.85 139.958 156.676 139.218 156.676 138.372C156.676 137.527 156.855 136.787 157.21 136.155C157.568 135.523 158.051 135.035 158.666 134.69C159.28 134.346 159.967 134.174 160.731 134.174C161.495 134.174 162.184 134.346 162.803 134.69C163.421 135.035 163.906 135.523 164.259 136.155C164.611 136.787 164.785 137.527 164.785 138.372C164.785 139.218 164.606 139.945 164.251 140.582C163.896 141.219 163.406 141.71 162.782 142.054C162.159 142.399 161.466 142.568 160.703 142.568C159.939 142.568 159.254 142.396 158.646 142.054H158.643ZM162.184 141.294C162.639 141.05 163.01 140.682 163.291 140.189C163.572 139.696 163.715 139.092 163.715 138.375C163.715 137.658 163.577 137.054 163.298 136.561C163.02 136.068 162.654 135.7 162.2 135.456C161.745 135.212 161.249 135.091 160.715 135.091C160.181 135.091 159.686 135.212 159.231 135.456C158.776 135.7 158.411 136.068 158.14 136.561C157.867 137.054 157.731 137.658 157.731 138.375C157.731 139.092 157.867 139.696 158.14 140.189C158.414 140.682 158.774 141.05 159.223 141.294C159.673 141.538 160.166 141.659 160.7 141.659C161.234 141.659 161.73 141.538 162.184 141.294Z" fill="white"/>
<path d="M167.57 141.921C166.98 141.487 166.65 140.898 166.581 140.15H167.652C167.7 140.608 167.917 140.98 168.298 141.263C168.679 141.546 169.192 141.69 169.836 141.69C170.4 141.69 170.842 141.556 171.164 141.286C171.486 141.016 171.647 140.685 171.647 140.287C171.647 140.009 171.558 139.778 171.379 139.601C171.2 139.421 170.975 139.279 170.704 139.174C170.431 139.069 170.063 138.958 169.598 138.837C168.995 138.678 168.505 138.519 168.129 138.359C167.754 138.2 167.434 137.964 167.171 137.65C166.908 137.337 166.778 136.915 166.778 136.389C166.778 135.99 166.895 135.623 167.135 135.284C167.373 134.945 167.71 134.677 168.145 134.477C168.581 134.279 169.075 134.179 169.629 134.179C170.5 134.179 171.203 134.4 171.737 134.844C172.271 135.286 172.559 135.898 172.598 136.674H171.558C171.527 136.196 171.343 135.811 171.001 135.515C170.658 135.222 170.191 135.076 169.598 135.076C169.075 135.076 168.648 135.202 168.321 135.448C167.994 135.697 167.83 136.006 167.83 136.373C167.83 136.692 167.927 136.954 168.119 137.157C168.313 137.36 168.553 137.522 168.839 137.635C169.126 137.751 169.511 137.876 169.997 138.015C170.582 138.174 171.047 138.329 171.392 138.478C171.737 138.627 172.035 138.845 172.283 139.135C172.531 139.423 172.659 139.809 172.669 140.287C172.669 140.726 172.549 141.117 172.311 141.458C172.074 141.803 171.742 142.072 171.318 142.273C170.891 142.471 170.403 142.571 169.849 142.571C168.919 142.571 168.157 142.355 167.57 141.921Z" fill="white"/>
<path d="M29.5766 156.706H22.2521C22.2853 157.379 22.4462 157.952 22.7375 158.43C23.0287 158.908 23.4119 159.267 23.8846 159.512C24.3598 159.756 24.8758 159.876 25.4379 159.876C26.1711 159.876 26.7893 159.697 27.2901 159.339C27.7908 158.982 28.1229 158.499 28.2839 157.893H29.4795C29.2649 158.761 28.8025 159.468 28.0974 160.015C27.3923 160.562 26.5058 160.837 25.4379 160.837C24.6076 160.837 23.8641 160.65 23.205 160.277C22.5484 159.902 22.0324 159.373 21.6619 158.684C21.2889 157.996 21.105 157.191 21.105 156.269C21.105 155.346 21.2889 154.54 21.6543 153.846C22.0196 153.152 22.5331 152.62 23.1897 152.253C23.8462 151.885 24.5973 151.7 25.4379 151.7C26.2784 151.7 27.0142 151.885 27.6452 152.253C28.2762 152.623 28.7616 153.119 29.1014 153.74C29.4412 154.365 29.6098 155.056 29.6098 155.814C29.6098 156.205 29.5996 156.503 29.5766 156.708V156.706ZM28.0642 154.087C27.7883 153.622 27.4153 153.268 26.9401 153.031C26.4649 152.792 25.9488 152.674 25.3868 152.674C24.5463 152.674 23.8284 152.944 23.2357 153.486C22.643 154.028 22.3134 154.794 22.2495 155.781H28.4602C28.4704 155.12 28.3401 154.555 28.0642 154.09V154.087Z" fill="white"/>
<path d="M45.1247 152.646C45.7762 153.301 46.1032 154.254 46.1032 155.501V160.704H44.9868V155.629C44.9868 154.666 44.7543 153.928 44.2919 153.417C43.8269 152.908 43.1984 152.654 42.3988 152.654C41.5991 152.654 40.9068 152.931 40.4086 153.484C39.913 154.036 39.6652 154.84 39.6652 155.891V160.706H38.5488V155.632C38.5488 154.668 38.3163 153.931 37.8539 153.419C37.3889 152.911 36.7553 152.656 35.9454 152.656C35.1356 152.656 34.4535 152.934 33.9553 153.486C33.4597 154.039 33.2118 154.843 33.2118 155.894V160.709H32.0801V151.829H33.2118V153.358C33.4929 152.805 33.8914 152.384 34.4075 152.096C34.9235 151.808 35.5009 151.664 36.1371 151.664C36.9035 151.664 37.5728 151.849 38.1502 152.217C38.7276 152.584 39.144 153.126 39.4046 153.843C39.6422 153.139 40.0484 152.6 40.6258 152.224C41.2032 151.849 41.8572 151.664 42.5904 151.664C43.6251 151.664 44.4682 151.993 45.1222 152.648L45.1247 152.646Z" fill="white"/>
<path d="M55.7728 160.072C54.8888 159.573 54.1888 158.882 53.6702 157.998C53.1516 157.114 52.8936 156.115 52.8936 154.997C52.8936 153.879 53.1516 152.898 53.6702 152.014C54.1888 151.13 54.8888 150.439 55.7728 149.94C56.6567 149.442 57.6275 149.192 58.6827 149.192C59.7378 149.192 60.7239 149.442 61.6002 149.94C62.479 150.439 63.1739 151.13 63.6875 152.014C64.1984 152.898 64.4564 153.892 64.4564 154.997C64.4564 156.102 64.201 157.114 63.6875 157.998C63.1765 158.882 62.4765 159.573 61.5925 160.072C60.7086 160.57 59.7378 160.819 58.6827 160.819C57.6275 160.819 56.6567 160.57 55.7728 160.072ZM60.4787 158.324C60.9973 158.016 61.4009 157.574 61.6922 156.999C61.9834 156.423 62.129 155.758 62.129 154.997C62.129 154.236 61.9834 153.573 61.6922 153.006C61.4009 152.438 60.9973 152.001 60.4787 151.698C59.96 151.395 59.3622 151.243 58.6827 151.243C58.0031 151.243 57.4027 151.395 56.879 151.698C56.3553 152.001 55.9491 152.438 55.6578 153.006C55.3666 153.576 55.2209 154.239 55.2209 154.997C55.2209 155.755 55.3666 156.423 55.6578 156.999C55.9491 157.574 56.3553 158.016 56.879 158.324C57.4027 158.633 58.0031 158.787 58.6827 158.787C59.3622 158.787 59.96 158.633 60.4787 158.324Z" fill="white"/>
<path d="M70.0132 151.962C70.5242 151.685 71.1092 151.549 71.7683 151.549C72.5348 151.549 73.2271 151.739 73.8454 152.119C74.4662 152.499 74.9567 153.039 75.3169 153.738C75.6771 154.437 75.8585 155.249 75.8585 156.169C75.8585 157.089 75.6771 157.906 75.3169 158.617C74.9567 159.327 74.4662 159.879 73.8454 160.267C73.2245 160.658 72.5322 160.853 71.7683 160.853C71.1118 160.853 70.5318 160.717 70.0311 160.447C69.5304 160.177 69.1216 159.835 68.8099 159.422V165H66.5464V151.695H68.8099V152.995C69.1012 152.584 69.5023 152.24 70.0158 151.962H70.0132ZM73.2143 154.761C72.9921 154.365 72.7034 154.064 72.3406 153.859C71.9804 153.653 71.5895 153.55 71.168 153.55C70.7464 153.55 70.3734 153.656 70.0107 153.866C69.6479 154.077 69.3592 154.385 69.1369 154.786C68.9147 155.187 68.8048 155.66 68.8048 156.202C68.8048 156.744 68.9147 157.217 69.1369 157.618C69.3592 158.019 69.6479 158.324 70.0107 158.538C70.3709 158.748 70.7566 158.854 71.168 158.854C71.5793 158.854 71.9778 158.746 72.3406 158.527C72.7008 158.312 72.9921 158.001 73.2143 157.6C73.434 157.199 73.5465 156.721 73.5465 156.169C73.5465 155.616 73.4366 155.159 73.2143 154.763V154.761Z" fill="white"/>
<path d="M79.5607 160.275C78.8709 159.889 78.3293 159.345 77.9359 158.641C77.5424 157.936 77.3457 157.122 77.3457 156.202C77.3457 155.282 77.5475 154.468 77.9512 153.761C78.3548 153.057 78.9092 152.512 79.6092 152.127C80.3092 151.741 81.091 151.549 81.9545 151.549C82.818 151.549 83.5998 151.741 84.2998 152.127C84.9998 152.512 85.5542 153.057 85.9578 153.761C86.3615 154.465 86.5633 155.28 86.5633 156.202C86.5633 157.125 86.3564 157.936 85.9399 158.641C85.5261 159.345 84.964 159.889 84.2589 160.275C83.5538 160.66 82.7618 160.853 81.8906 160.853C81.0195 160.853 80.2505 160.66 79.5632 160.275H79.5607ZM83.0454 158.566C83.4056 158.366 83.6943 158.065 83.9115 157.664C84.1261 157.263 84.2359 156.775 84.2359 156.199C84.2359 155.344 84.0111 154.683 83.564 154.224C83.1169 153.764 82.5702 153.532 81.9239 153.532C81.2775 153.532 80.7359 153.764 80.299 154.224C79.8621 154.683 79.645 155.344 79.645 156.199C79.645 157.055 79.857 157.715 80.2837 158.175C80.7103 158.635 81.2468 158.867 81.8932 158.867C82.302 158.867 82.6877 158.766 83.0505 158.566H83.0454Z" fill="white"/>
<path d="M92.0377 151.973C92.5078 151.703 93.0417 151.567 93.6472 151.567V153.956H93.0494C92.3366 153.956 91.8027 154.126 91.4399 154.46C91.0797 154.797 90.8983 155.382 90.8983 156.217V160.706H88.6348V151.695H90.8983V153.093C91.1895 152.615 91.5702 152.242 92.0377 151.97V151.973Z" fill="white"/>
<path d="M98.2053 153.566V157.924C98.2053 158.227 98.2793 158.448 98.4224 158.581C98.568 158.718 98.8133 158.784 99.1582 158.784H100.208V160.704H98.7852C96.8768 160.704 95.9238 159.771 95.9238 157.906V153.563H94.856V151.693H95.9238V149.465H98.2027V151.693H100.208V153.563H98.2027L98.2053 153.566Z" fill="white"/>
<path d="M110.705 151.695V160.706H108.427V159.568C108.135 159.959 107.755 160.264 107.287 160.488C106.817 160.709 106.309 160.822 105.759 160.822C105.059 160.822 104.439 160.673 103.899 160.375C103.36 160.077 102.936 159.637 102.63 159.057C102.323 158.476 102.17 157.785 102.17 156.983V151.698H104.433V156.659C104.433 157.376 104.612 157.926 104.967 158.309C105.323 158.694 105.808 158.887 106.424 158.887C107.039 158.887 107.54 158.694 107.895 158.309C108.25 157.924 108.429 157.374 108.429 156.659V151.698H110.708L110.705 151.695Z" fill="white"/>
<path d="M120.894 152.582C121.551 153.26 121.88 154.206 121.88 155.421V160.706H119.617V155.729C119.617 155.012 119.438 154.463 119.083 154.08C118.728 153.694 118.242 153.502 117.627 153.502C117.011 153.502 116.508 153.694 116.147 154.08C115.787 154.465 115.606 155.015 115.606 155.729V160.706H113.342V151.695H115.606V152.818C115.907 152.427 116.293 152.122 116.763 151.898C117.233 151.677 117.747 151.564 118.306 151.564C119.374 151.564 120.235 151.903 120.894 152.582Z" fill="white"/>
<path d="M124.588 150.241C124.325 149.986 124.192 149.668 124.192 149.29C124.192 148.912 124.325 148.594 124.588 148.339C124.852 148.085 125.184 147.957 125.582 147.957C125.981 147.957 126.313 148.085 126.576 148.339C126.839 148.594 126.972 148.912 126.972 149.29C126.972 149.668 126.839 149.986 126.576 150.241C126.31 150.495 125.981 150.624 125.582 150.624C125.184 150.624 124.852 150.495 124.588 150.241ZM126.699 151.698V160.709H124.435V151.698H126.699Z" fill="white"/>
<path d="M129.294 153.746C129.654 153.042 130.147 152.499 130.773 152.119C131.399 151.739 132.094 151.549 132.86 151.549C133.443 151.549 133.997 151.677 134.526 151.932C135.055 152.186 135.474 152.525 135.788 152.949V148.671H138.085V160.706H135.788V159.373C135.507 159.817 135.114 160.174 134.608 160.447C134.102 160.717 133.514 160.853 132.845 160.853C132.089 160.853 131.399 160.658 130.776 160.267C130.15 159.876 129.657 159.327 129.296 158.617C128.936 157.908 128.755 157.091 128.755 156.169C128.755 155.246 128.936 154.45 129.296 153.746H129.294ZM135.479 154.779C135.264 154.383 134.973 154.08 134.605 153.869C134.237 153.658 133.844 153.553 133.425 153.553C133.006 153.553 132.615 153.656 132.26 153.861C131.905 154.067 131.616 154.367 131.394 154.763C131.172 155.159 131.062 155.629 131.062 156.169C131.062 156.708 131.172 157.186 131.394 157.592C131.616 157.998 131.905 158.312 132.268 158.527C132.628 158.743 133.014 158.854 133.425 158.854C133.836 158.854 134.24 158.748 134.605 158.538C134.971 158.327 135.262 158.024 135.479 157.628C135.694 157.232 135.803 156.757 135.803 156.205C135.803 155.652 135.696 155.177 135.479 154.781V154.779Z" fill="white"/>
<path d="M140.663 153.746C141.023 153.042 141.513 152.499 142.134 152.119C142.755 151.739 143.447 151.549 144.211 151.549C144.881 151.549 145.466 151.685 145.966 151.955C146.467 152.224 146.868 152.566 147.172 152.98V151.695H149.451V160.706H147.172V159.388C146.881 159.812 146.48 160.162 145.966 160.437C145.455 160.714 144.863 160.85 144.196 160.85C143.442 160.85 142.755 160.655 142.134 160.264C141.513 159.874 141.023 159.324 140.663 158.615C140.302 157.906 140.121 157.089 140.121 156.166C140.121 155.244 140.302 154.447 140.663 153.743V153.746ZM146.848 154.779C146.633 154.383 146.342 154.08 145.974 153.869C145.606 153.658 145.213 153.553 144.794 153.553C144.375 153.553 143.984 153.656 143.629 153.861C143.274 154.067 142.985 154.367 142.763 154.763C142.54 155.159 142.431 155.629 142.431 156.169C142.431 156.708 142.54 157.186 142.763 157.592C142.985 157.998 143.274 158.312 143.636 158.527C143.997 158.743 144.382 158.854 144.794 158.854C145.205 158.854 145.609 158.748 145.974 158.538C146.339 158.327 146.631 158.024 146.848 157.628C147.062 157.232 147.172 156.757 147.172 156.205C147.172 155.652 147.065 155.177 146.848 154.781V154.779Z" fill="white"/>
<path d="M152.032 153.746C152.392 153.042 152.885 152.499 153.511 152.119C154.137 151.739 154.832 151.549 155.598 151.549C156.181 151.549 156.735 151.677 157.264 151.932C157.793 152.186 158.212 152.525 158.526 152.949V148.671H160.823V160.706H158.526V159.373C158.245 159.817 157.852 160.174 157.346 160.447C156.84 160.717 156.252 160.853 155.583 160.853C154.827 160.853 154.137 160.658 153.514 160.267C152.888 159.876 152.395 159.327 152.034 158.617C151.674 157.908 151.493 157.091 151.493 156.169C151.493 155.246 151.674 154.45 152.034 153.746H152.032ZM158.217 154.779C158.002 154.383 157.711 154.08 157.343 153.869C156.975 153.658 156.582 153.553 156.163 153.553C155.744 153.553 155.353 153.656 154.998 153.861C154.643 154.067 154.354 154.367 154.132 154.763C153.909 155.159 153.8 155.629 153.8 156.169C153.8 156.708 153.909 157.186 154.132 157.592C154.354 157.998 154.643 158.312 155.005 158.527C155.366 158.743 155.751 158.854 156.163 158.854C156.574 158.854 156.978 158.748 157.343 158.538C157.708 158.327 158 158.024 158.217 157.628C158.431 157.232 158.541 156.757 158.541 156.205C158.541 155.652 158.434 155.177 158.217 154.781V154.779Z" fill="white"/>
<path d="M171.703 156.883H165.153C165.206 157.533 165.434 158.044 165.832 158.412C166.231 158.779 166.721 158.964 167.304 158.964C168.144 158.964 168.742 158.602 169.1 157.875H171.542C171.284 158.743 170.788 159.455 170.055 160.013C169.322 160.57 168.423 160.85 167.355 160.85C166.491 160.85 165.72 160.658 165.035 160.272C164.35 159.887 163.816 159.342 163.433 158.638C163.05 157.934 162.858 157.119 162.858 156.199C162.858 155.28 163.047 154.45 163.426 153.743C163.804 153.039 164.33 152.497 165.01 152.117C165.689 151.736 166.471 151.546 167.355 151.546C168.239 151.546 168.969 151.731 169.644 152.099C170.318 152.469 170.839 152.99 171.212 153.669C171.585 154.347 171.769 155.125 171.769 156.002C171.769 156.328 171.749 156.621 171.706 156.88L171.703 156.883ZM169.422 155.354C169.411 154.768 169.199 154.301 168.791 153.949C168.382 153.597 167.879 153.419 167.286 153.419C166.724 153.419 166.254 153.591 165.87 153.931C165.487 154.27 165.252 154.748 165.168 155.354H169.422Z" fill="white"/>
<path d="M31.6382 30.7183C30.2714 30.7183 29.1014 30.5384 28.1331 30.1813C27.1623 29.8241 26.3856 29.4644 25.798 29.1072C25.213 28.7501 24.8272 28.5702 24.6458 28.5702C24.4491 28.5702 24.3188 28.6756 24.2473 28.8862C24.1783 29.0969 24.1247 29.3436 24.0915 29.6237C24.0557 29.9038 23.9995 30.1504 23.9228 30.3611C23.8462 30.5718 23.6955 30.6772 23.4732 30.6772C23.348 30.6772 23.2433 30.6309 23.159 30.541C23.0747 30.4485 23.0133 30.3046 22.9699 30.1093L21.2327 23.7498C21.1765 23.5546 21.1841 23.3875 21.2531 23.2539C21.3221 23.1203 21.4422 23.0252 21.6082 22.9687C21.7768 22.9122 21.9225 22.9225 22.0476 22.9995C22.1728 23.0766 22.2852 23.2077 22.3823 23.3901C23.0389 24.8367 23.859 26.0161 24.8426 26.9283C25.8261 27.8405 26.9017 28.5188 28.0667 28.9608C29.2316 29.4027 30.4068 29.6237 31.5948 29.6237C33.3525 29.6237 34.7167 29.1226 35.6875 28.118C36.6584 27.1159 37.1489 25.8337 37.1642 24.2766C37.177 23.3233 36.9751 22.424 36.5562 21.5812C36.1372 20.7384 35.3631 19.9264 34.2313 19.1402C33.1021 18.3539 31.462 17.5753 29.3108 16.8019C27.2721 16.0439 25.6371 15.2165 24.4031 14.3172C23.1692 13.4205 22.2699 12.4235 21.713 11.3263C21.1535 10.2317 20.875 9.01122 20.875 7.66224C20.875 6.08971 21.2301 4.73301 21.9429 3.58702C22.6557 2.44359 23.6342 1.55969 24.8834 0.935302C26.1327 0.310915 27.5736 -0.00256348 29.2061 -0.00256348C30.6163 -0.00256348 31.7455 0.167023 32.5963 0.503627C33.447 0.84023 34.1113 1.18197 34.5839 1.52372C35.0591 1.86803 35.427 2.04018 35.6927 2.04018C35.9865 2.04018 36.1423 1.87574 36.1627 1.54427C36.1832 1.21538 36.2113 0.878773 36.247 0.534461C36.2828 0.190148 36.4463 0.0179925 36.7401 0.0179925C36.8781 0.0179925 36.9879 0.0642434 37.0646 0.154176C37.1412 0.246677 37.2204 0.403416 37.3047 0.626962L39.3971 7.42841C39.4661 7.61085 39.4661 7.78043 39.3971 7.9346C39.3281 8.08877 39.2157 8.19412 39.0624 8.25065C38.8938 8.30718 38.7456 8.29947 38.6128 8.23009C38.4799 8.16072 38.3649 8.0271 38.2679 7.82925C37.4733 6.1745 36.6047 4.85378 35.662 3.87223C34.7193 2.89069 33.7076 2.18151 32.6269 1.74469C31.5463 1.31045 30.4043 1.09204 29.2035 1.09204C27.3616 1.09204 25.8798 1.6265 24.7557 2.69284C23.6316 3.75917 23.0695 5.18524 23.0695 6.9659C23.0695 7.97571 23.2918 8.92642 23.7389 9.81804C24.186 10.7097 24.9601 11.5576 26.0637 12.3644C27.1648 13.1712 28.7156 13.9549 30.7109 14.7129C32.8875 15.5403 34.6069 16.4011 35.8715 17.2927C37.1335 18.1843 38.0277 19.1453 38.5514 20.1782C39.0752 21.2086 39.3306 22.3649 39.3153 23.6419C39.3153 24.919 39.019 26.0958 38.4263 27.1698C37.8336 28.2439 36.97 29.1021 35.8408 29.7496C34.7116 30.3971 33.3091 30.7183 31.6331 30.7183H31.6382Z" fill="white"/>
<path d="M61.9299 17.9582C61.9299 18.4361 61.7766 18.7958 61.47 19.0425C61.1635 19.2892 60.7087 19.4099 60.1083 19.4099H46.2513V18.4824H58.5397C59.1963 18.4824 59.5233 18.2023 59.5233 17.6396C59.5233 15.7176 59.02 14.1579 58.016 12.9657C57.012 11.7734 55.6656 11.1773 53.9769 11.1773C52.6229 11.1773 51.4375 11.5422 50.4181 12.2719C49.3988 13.0016 48.6068 14.0114 48.0422 15.3039C47.4776 16.5963 47.194 18.0841 47.194 19.7671C47.194 22.6732 47.9068 24.9112 49.3298 26.4838C50.7528 28.0563 52.582 28.8426 54.8149 28.8426C56.4193 28.8426 57.7988 28.4289 58.9485 27.6015C60.1007 26.7741 60.8084 25.7489 61.074 24.5284C61.143 24.3588 61.2171 24.2406 61.2938 24.1712C61.3704 24.1018 61.4649 24.0659 61.5773 24.0659C61.7306 24.0659 61.8405 24.1173 61.9018 24.2226C61.9631 24.3279 61.9887 24.4513 61.9759 24.59C61.8507 25.7001 61.4394 26.6996 60.7419 27.5912C60.0445 28.4828 59.1324 29.1869 58.0109 29.7085C56.8868 30.2275 55.6349 30.487 54.2528 30.487C52.3827 30.487 50.7502 30.081 49.3553 29.2665C47.9604 28.452 46.8823 27.3009 46.121 25.8131C45.3597 24.3254 44.979 22.5781 44.979 20.5714C44.979 18.5646 45.3622 16.8636 46.1312 15.2962C46.8976 13.7314 47.9757 12.4852 49.3655 11.5601C50.7528 10.6326 52.3827 10.17 54.2528 10.17C55.732 10.17 57.0503 10.4989 58.2102 11.1593C59.3675 11.8197 60.2795 12.7318 60.9412 13.8958C61.6029 15.0624 61.935 16.4165 61.935 17.9582H61.9299Z" fill="white"/>
<path d="M72.249 11.1387V27.8764C72.249 28.1719 72.3333 28.4032 72.4994 28.5702C72.6654 28.7372 72.903 28.8503 73.2122 28.9068L74.4052 29.138C74.8242 29.2228 75.0337 29.3847 75.0337 29.6211C75.0337 29.9012 74.8166 30.0425 74.3848 30.0425H67.8114C67.6147 30.0425 67.4665 30.004 67.3618 29.9269C67.257 29.8498 67.2033 29.747 67.2033 29.6211C67.2033 29.4952 67.257 29.3924 67.3618 29.3153C67.4665 29.2383 67.6223 29.1792 67.8318 29.1355L69.0888 28.9042C69.3953 28.8348 69.6329 28.7218 69.8016 28.5676C69.9702 28.4134 70.0519 28.1899 70.0519 27.8944V13.2637C70.0519 13.0119 70.0034 12.8243 69.9063 12.7061C69.8092 12.5879 69.6406 12.5263 69.403 12.5263L67.4972 12.5057C67.2877 12.4929 67.1369 12.4569 67.0475 12.4004C66.9555 12.3438 66.9121 12.259 66.9121 12.1486C66.9121 12.0509 66.9581 11.9584 67.0475 11.8736C67.1369 11.7888 67.2877 11.7117 67.4972 11.6424L70.3662 10.6942C70.6727 10.5966 70.9231 10.5246 71.1198 10.4835C71.314 10.4424 71.4749 10.4193 71.6001 10.4193C71.8224 10.4193 71.9884 10.4784 72.0932 10.5991C72.1979 10.7173 72.249 10.8972 72.249 11.1362V11.1387ZM71.7253 15.2653L71.1173 14.6769L72.1851 13.793C73.7206 12.4595 75.0593 11.5216 76.2038 10.982C77.3483 10.4424 78.4724 10.17 79.5735 10.17C81.3031 10.17 82.6929 10.6994 83.7404 11.7606C84.7878 12.8192 85.3116 14.2838 85.3116 16.1493V27.7505C85.3116 28.0871 85.4086 28.3518 85.6053 28.5393C85.7995 28.7295 86.0652 28.858 86.3999 28.9299L87.4678 29.1612C87.8714 29.246 88.0758 29.4001 88.0758 29.6237C88.0758 29.9037 87.874 30.0451 87.4678 30.0451H80.8739C80.4422 30.0451 80.225 29.9063 80.225 29.6237C80.225 29.3847 80.4345 29.2228 80.8535 29.1406L82.1104 28.9094C82.4579 28.8528 82.7134 28.7269 82.8743 28.5316C83.0353 28.3364 83.1144 28.0768 83.1144 27.7531V16.5321C83.1144 14.8774 82.698 13.6363 81.8677 12.8166C81.0374 11.9944 79.9516 11.5858 78.6129 11.5858C77.7903 11.5858 76.8961 11.8094 75.933 12.259C74.9698 12.7087 73.8943 13.4307 72.7089 14.4277L71.7253 15.2705V15.2653ZM84.7674 15.2653L84.1823 14.6769L85.2298 13.793C86.7652 12.4595 88.1039 11.5216 89.2484 10.982C90.393 10.4424 91.5222 10.17 92.6386 10.17C94.3554 10.17 95.7376 10.6994 96.7825 11.7606C97.8299 12.8192 98.3536 14.2838 98.3536 16.1493V27.7505C98.3536 28.0871 98.4507 28.3518 98.6474 28.5393C98.8416 28.7295 99.1073 28.858 99.442 28.9299L100.53 29.1406C100.724 29.1817 100.878 29.2434 100.99 29.3205C101.103 29.3976 101.159 29.5003 101.159 29.6262C101.159 29.7522 101.11 29.8549 101.013 29.932C100.916 30.0091 100.755 30.0476 100.533 30.0476H93.939C93.4919 30.0476 93.2697 29.9089 93.2697 29.6262C93.2697 29.3873 93.4791 29.2254 93.8981 29.1432L95.1551 28.9119C95.5025 28.8554 95.758 28.7295 95.919 28.5342C96.0799 28.3389 96.1591 28.0794 96.1591 27.7557V16.5347C96.1591 14.8799 95.7427 13.6389 94.9149 12.8192C94.0846 11.997 92.9988 11.5884 91.6602 11.5884C90.8375 11.5884 89.9459 11.8119 88.9904 12.2616C88.0349 12.7113 86.9645 13.4333 85.7765 14.4303L84.7725 15.2731L84.7674 15.2653Z" fill="white"/>
<path d="M106.391 25.7283C106.391 24.1841 107.068 22.8942 108.422 21.8535C109.776 20.8155 111.638 20.2964 114.011 20.2964C115.031 20.2964 115.984 20.4018 116.87 20.6125C117.757 20.8232 118.556 21.0827 119.267 21.391L119.121 22.2133C118.395 21.9178 117.642 21.6737 116.86 21.4758C116.078 21.2805 115.228 21.1803 114.305 21.1803C112.576 21.1803 111.224 21.5632 110.256 22.3289C109.285 23.0946 108.8 24.1224 108.8 25.4123C108.8 26.7022 109.18 27.5989 109.942 28.2644C110.703 28.9325 111.661 29.264 112.821 29.264C113.981 29.264 115.176 28.9942 116.285 28.4546C117.394 27.915 118.375 27.1184 119.226 26.0649L119.624 26.7176C118.717 27.9098 117.609 28.8374 116.295 29.4978C114.982 30.1581 113.595 30.487 112.129 30.487C110.468 30.487 109.096 30.0682 108.015 29.2357C106.935 28.4006 106.393 27.2315 106.393 25.7309L106.391 25.7283ZM118.72 27.5809V27.2032L118.636 27.0336V15.8127C118.636 14.2556 118.255 13.0684 117.494 12.2539C116.732 11.4394 115.641 11.0334 114.218 11.0334C112.795 11.0334 111.774 11.3212 111.109 11.8968C110.448 12.4723 110.115 13.1455 110.115 13.9189V15.2448C110.115 15.679 109.985 16.0054 109.727 16.2238C109.469 16.4422 109.132 16.5501 108.713 16.5501C108.322 16.5501 108.013 16.4216 107.78 16.1595C107.55 15.9 107.436 15.566 107.436 15.16C107.436 14.3172 107.729 13.5181 108.314 12.7601C108.899 12.0021 109.735 11.3854 110.815 10.9075C111.896 10.4296 113.171 10.1906 114.635 10.1906C116.727 10.1906 118.283 10.6891 119.302 11.6861C120.322 12.683 120.83 14.0012 120.83 15.6431V27.6863C120.83 28.2336 120.927 28.619 121.124 28.8451C121.318 29.0687 121.576 29.1817 121.898 29.1817C122.289 29.1817 122.56 29.0944 122.716 28.9196C122.869 28.7449 122.994 28.5728 123.091 28.4032C123.147 28.3184 123.206 28.249 123.27 28.1925C123.334 28.136 123.413 28.1077 123.51 28.1077C123.607 28.1077 123.684 28.1437 123.74 28.213C123.796 28.2824 123.824 28.3878 123.824 28.5291C123.824 28.8246 123.73 29.1226 123.541 29.4233C123.352 29.7265 123.081 29.9783 122.723 30.1813C122.368 30.3843 121.924 30.487 121.395 30.487C120.516 30.487 119.849 30.2558 119.397 29.7933C118.942 29.3308 118.717 28.5933 118.717 27.5835L118.72 27.5809Z" fill="white"/>
<path d="M133.563 11.1387V27.8764C133.563 28.1719 133.648 28.4032 133.814 28.5702C133.98 28.7372 134.217 28.8503 134.527 28.9068L135.72 29.138C136.139 29.2228 136.348 29.3847 136.348 29.6211C136.348 29.9012 136.131 30.0425 135.699 30.0425H129.126C128.929 30.0425 128.781 30.004 128.676 29.9269C128.571 29.8498 128.518 29.747 128.518 29.6211C128.518 29.4952 128.571 29.3924 128.676 29.3153C128.781 29.2383 128.937 29.1792 129.146 29.1355L130.403 28.9042C130.71 28.8348 130.947 28.7218 131.116 28.5676C131.285 28.4134 131.366 28.1899 131.366 27.8944V13.2637C131.366 13.0119 131.318 12.8243 131.221 12.7061C131.124 12.5879 130.955 12.5263 130.717 12.5263L128.812 12.5057C128.602 12.4929 128.451 12.4569 128.362 12.4004C128.27 12.3438 128.227 12.259 128.227 12.1486C128.227 12.0509 128.273 11.9584 128.362 11.8736C128.451 11.7888 128.602 11.7117 128.812 11.6424L131.681 10.6942C131.987 10.5966 132.238 10.5246 132.434 10.4835C132.628 10.4424 132.789 10.4193 132.915 10.4193C133.137 10.4193 133.303 10.4784 133.408 10.5991C133.512 10.7173 133.563 10.8972 133.563 11.1362V11.1387ZM133.04 15.2653L132.432 14.6769L133.5 13.793C135.02 12.4595 136.356 11.5216 137.508 10.982C138.66 10.4424 139.792 10.17 140.911 10.17C142.641 10.17 144.03 10.6994 145.078 11.7606C146.125 12.8218 146.649 14.2838 146.649 16.1493V27.7505C146.649 28.0871 146.746 28.3518 146.943 28.5393C147.137 28.7295 147.403 28.858 147.737 28.9299L148.826 29.1406C149.02 29.1817 149.171 29.2434 149.275 29.3205C149.38 29.3976 149.431 29.5003 149.431 29.6262C149.431 29.7522 149.383 29.8549 149.286 29.932C149.188 30.0091 149.035 30.0476 148.826 30.0476H142.211C141.78 30.0476 141.562 29.9089 141.562 29.6262C141.562 29.3873 141.772 29.2254 142.191 29.1432L143.448 28.9119C143.783 28.8554 144.033 28.7295 144.202 28.5342C144.37 28.3389 144.452 28.0794 144.452 27.7557V16.5347C144.452 14.8799 144.035 13.6389 143.205 12.8192C142.375 11.997 141.284 11.5884 139.93 11.5884C139.107 11.5884 138.213 11.8119 137.25 12.2616C136.287 12.7113 135.211 13.4333 134.026 14.4303L133.042 15.2731L133.04 15.2653Z" fill="white"/>
<path d="M154.684 25.7283C154.684 24.1841 155.361 22.8942 156.715 21.8535C158.069 20.8155 159.931 20.2964 162.304 20.2964C163.324 20.2964 164.277 20.4018 165.163 20.6125C166.05 20.8232 166.849 21.0827 167.56 21.391L167.414 22.2133C166.688 21.9178 165.935 21.6737 165.153 21.4758C164.371 21.2805 163.521 21.1803 162.598 21.1803C160.869 21.1803 159.517 21.5632 158.549 22.3289C157.578 23.0946 157.093 24.1224 157.093 25.4123C157.093 26.7022 157.473 27.5989 158.235 28.2644C158.996 28.9325 159.954 29.264 161.114 29.264C162.274 29.264 163.469 28.9942 164.578 28.4546C165.687 27.915 166.668 27.1184 167.519 26.0649L167.917 26.7176C167.01 27.9098 165.902 28.8374 164.588 29.4978C163.275 30.1581 161.888 30.487 160.422 30.487C158.761 30.487 157.389 30.0682 156.308 29.2357C155.228 28.4006 154.686 27.2315 154.686 25.7309L154.684 25.7283ZM167.013 27.5809V27.2032L166.929 27.0336V15.8127C166.929 14.2556 166.548 13.0684 165.787 12.2539C165.025 11.4394 163.934 11.0334 162.511 11.0334C161.088 11.0334 160.066 11.3212 159.402 11.8968C158.741 12.4723 158.408 13.1455 158.408 13.9189V15.2448C158.408 15.679 158.278 16.0054 158.02 16.2238C157.762 16.4422 157.425 16.5501 157.006 16.5501C156.615 16.5501 156.306 16.4216 156.073 16.1595C155.843 15.9 155.729 15.566 155.729 15.16C155.729 14.3172 156.022 13.5181 156.607 12.7601C157.192 12.0021 158.028 11.3854 159.108 10.9075C160.189 10.4296 161.464 10.1906 162.928 10.1906C165.02 10.1906 166.576 10.6891 167.595 11.6861C168.615 12.683 169.123 14.0012 169.123 15.6431V27.6863C169.123 28.2336 169.22 28.619 169.417 28.8451C169.611 29.0687 169.869 29.1817 170.191 29.1817C170.582 29.1817 170.853 29.0944 171.009 28.9196C171.162 28.7449 171.287 28.5728 171.384 28.4032C171.44 28.3184 171.499 28.249 171.563 28.1925C171.627 28.136 171.706 28.1077 171.803 28.1077C171.9 28.1077 171.977 28.1437 172.033 28.213C172.089 28.2824 172.117 28.3878 172.117 28.5291C172.117 28.8246 172.023 29.1226 171.834 29.4233C171.645 29.7265 171.374 29.9783 171.016 30.1813C170.661 30.3843 170.217 30.487 169.688 30.487C168.809 30.487 168.142 30.2558 167.69 29.7933C167.235 29.3308 167.01 28.5933 167.01 27.5835L167.013 27.5809Z" fill="white"/>
<path d="M170.283 115.517C169.874 115.501 169.489 115.586 169.144 115.748C167.046 116.735 164.724 117.135 162.407 117.135H110.121C106.884 117.135 103.662 116.318 100.947 114.551C100.308 114.134 99.5468 113.895 98.7318 113.895C97.9168 113.895 97.1529 114.137 96.5168 114.551C93.7985 116.318 90.577 117.135 87.3426 117.135H30.5936C28.2789 117.135 25.9566 116.732 23.8566 115.748C23.5117 115.586 23.126 115.501 22.7172 115.517C21.4347 115.566 20.3719 116.642 20.3336 117.935C20.2927 119.345 21.4168 120.502 22.8117 120.502C23.1438 120.502 23.4606 120.435 23.7493 120.317C25.8468 119.451 28.0541 118.88 30.3202 118.88H87.3401C90.577 118.88 93.7985 119.697 96.5143 121.465C97.1529 121.881 97.9143 122.12 98.7292 122.12C99.5442 122.12 100.308 121.879 100.944 121.465C103.662 119.697 106.884 118.88 110.118 118.88H162.675C164.941 118.88 167.148 119.448 169.246 120.317C169.535 120.435 169.851 120.502 170.184 120.502C171.576 120.502 172.703 119.345 172.662 117.935C172.623 116.645 171.561 115.566 170.278 115.517H170.283Z" fill="#D900B1"/>
</g>
<defs>
<clipPath id="clip0_6456_48185">
<rect width="193" height="165" fill="white"/>
</clipPath>
</defs>
</svg>
