<svg width="704" height="1203" viewBox="0 0 704 1203" fill="none" xmlns="http://www.w3.org/2000/svg">
<path d="M446.168 425.233L334.196 313.26C279.943 259.097 242.145 189.458 231.917 113.505C228.982 91.8042 219.91 67.7909 199.632 43.6887C137.82 -30.0409 0.321829 -9.85199 -26.3596 99.7197C-31.6069 121.154 -31.4288 143.744 -26.0925 165.089C-11.5067 223.344 34.2074 255.45 83.3012 261.676C165.48 271.993 240.722 312.815 299.243 371.425L385.869 458.051C422.422 494.605 442.344 544.677 440.565 596.439C440.565 597.951 440.565 599.463 440.565 600.974V601.775C442.966 654.515 424.645 706.01 387.291 743.275L299.154 831.413C241.433 889.134 167.348 929.689 86.4143 939.917C23.8909 947.833 -31.6957 1000.4 -30.6284 1070.66C-25.47 1201.57 118.876 1237.33 189.582 1168.93C216.264 1143.05 227.737 1115.48 231.205 1090.31C241.7 1013.56 280.121 943.386 334.818 888.6L447.769 775.649C477.919 745.499 519.542 728.245 562.144 731.358C629.47 736.338 700.354 692.848 704 600.886C704 563.532 688.702 529.468 663.444 505.811C629.647 474.238 594.25 467.212 565.256 469.257C521.054 472.459 477.652 456.628 446.257 425.233H446.168Z" fill="#D900B1"/>
<path d="M572.283 0.37793C499.531 0.37793 440.565 59.3438 440.565 132.095C447.503 306.769 696.974 306.68 703.911 132.095C703.911 59.3438 644.945 0.37793 572.194 0.37793H572.283Z" fill="#D900B1"/>
<path d="M232.628 601.154C225.691 426.48 -23.8695 426.569 -30.7178 601.154C-23.7806 775.829 225.691 775.74 232.628 601.154Z" fill="#D900B1"/>
<path d="M572.283 939.295C499.531 939.295 440.565 998.261 440.565 1071.01C447.503 1245.69 696.974 1245.6 703.911 1071.01C703.911 998.261 644.945 939.295 572.194 939.295H572.283Z" fill="#D900B1"/>
</svg>
